<?xml version="1.0" encoding="UTF-8"?>
<svg id="Layer_2" data-name="Layer 2" xmlns="http://www.w3.org/2000/svg" viewBox="0 0 3673.94 907.69">
  <g id="Layer_2-2" data-name="Layer 2">
    <g>
      <g>
        <path d="M1130.99,644.03c-21.32.05-49.81-2.29-70.11-.04-12.48,1.39-14.71,10.93-2.02,15.97,16.36,6.49,35.38,4.89,47.86,20.14,14.36,17.56,8.86,49.75-10.54,61.64-2.83,1.74-13.23,6.37-15.83,6.37h-61.75v-31.92h56.2c4.86,0,11.11-8.46,6.28-13.22-4.04-3.99-34.73-9.34-44-14.28-27.01-14.4-23.19-57.63,2.43-71.63,2.2-1.2,11.35-4.95,13.09-4.95h78.41c.03,10.62-.04,21.3,0,31.92,10.62-.03,21.3.05,31.92,0,.04-10.62-.03-21.3,0-31.92h25.67c1.39,0,6.24,4.85,6.24,6.24v25.67c-10.62.03-21.3-.05-31.92,0-.14,34.67.11,69.41,0,104.08h-31.92c-.11-34.67.14-69.41,0-104.08Z"/>
        <path d="M159.46,770.18c-1.86,1.28-6.66-.25-7.13-3.02l-30.31-86.42c.02-2.61.34-3.11,2.32-4.66,1.67-1.31,30.04-13.39,31.76-13.44,2.12-.07,28.8,11.61,31.73,13.49,1.72,1.1,3.61,2.3,3.64,4.63l-32.01,89.41Z"/>
        <path d="M159.46,558.13l30.55,100.29c-.58,1.65-1.81,2.09-3.4,2.33-6.24.93-22.83-11.26-30.48-11.26-6.65,0-25.58,12.5-30.35,11.09-1.49-.44-2.22-1.91-2.32-3.41,9.28-32.9,19.23-66.31,30.57-98.51l5.45-.53Z"/>
        <path d="M568.96,705.09l22.9,51.36c3.61-5.72,20.77-51.36,23.59-51.36h21.51v65.22h-13.88v-49.96l-22.86,48.61c-1.96,2.01-16.27,2.13-17.53.49l-23.45-49.1v49.96h-13.88v-65.22h23.59Z"/>
        <path d="M122.12,122.25l-75.31,61.45c-1.17,1.82-.92,3.2-.43,5.16,1.21,4.82,20.32,33.01,18.83,34.7-11.6-10.67-28.97-20.72-39.61-31.85-10.01-10.48-.48-17.95,6.99-26.45,9.36-10.66,26.93-30.61,37.45-38.87,1.19-.93,4.63-4.13,5.59-4.13h46.49Z"/>
        <path d="M22.2,279.06l75.28-61.43c1.33-2.25,1.21-4.18.46-6.61-1.23-3.99-20.3-31.62-18.83-33.27,11.34,10.33,27.6,19.85,38.19,30.49,10.11,10.17,6.73,13.78-1.41,23.65-10.28,12.45-27.83,31.06-39.5,42.37-1.13,1.1-5.33,4.79-6.31,4.79H22.2Z"/>
        <path d="M311.54,705.09c16.14,2.68,18.92,23.74,4.86,31.9,12.73,2.05,17.62,15.94,10.35,26.32-1.28,1.83-8.18,7-9.66,7h-54.81c5.17-22.66,5.21-42.58,0-65.22,14.88,1.75,35.07-2.36,49.26,0ZM304.6,716.19c-6.86-1.48-18.22,1.08-25.67,0l1.4,15.25c6.33-1.05,22.52,2.04,27.15-1.27,5.38-3.86,3.11-12.69-2.87-13.98ZM307.38,742.56c-7.83-1.33-18.82.98-27.06,0l-1.39,16.65h31.22c5.86,0,7.96-14.83-2.78-16.65Z"/>
        <path d="M606.43,168.74c.59-4.03,2.45-5.6,6.34-6.11,9.34-1.23,34.98-1.29,44.35-.17,6.5.78,15.69,7.95,18.03,13.88,5.76,14.62-2.98,27.47-15.95,34.01l22.17,29.83c-4.06-.63-11.96,1.31-15.25-.69-3.64-2.21-18.38-28.44-21.52-28.44h-25.67v29.14h-12.49v-71.47ZM618.92,199.96h32.61c5.17,0,12.87-7.85,13.17-13.29.26-4.75-6.13-13.07-10.39-13.07h-35.39v26.37Z"/>
        <polygon points="1472.36 70.9 1472.36 91.72 1362.74 91.72 1362.74 69.51 1472.36 70.9"/>
        <path d="M219.04,162.72l36.29,77.48c-17.25,3.94-16.25-10.51-22.39-21.99-.57-.41-1.21-.3-1.87-.34-3.38-.2-39.39,6.09-42.69,7.42-5.46,2.21-6.25,12.36-9.35,14.24-2.91,1.77-9.01.2-12.51.66l37.69-77.47h14.82ZM212.3,174.99l-3.09,1.79-16.32,35.67,33.3-5.56-13.9-31.9Z"/>
        <path d="M797.94,240.19c-3.13-.63-11.63,1.06-13.66-.21-3.6-2.25-5.48-22.03-13.32-22.05-11.58-.03-28.99,7.28-41.41,7.32-4.34.82-6.29,13.56-8.16,14.73s-9.34-.37-12.26.22l36.29-77.48c4.28.01,12.7-1.58,15.76,1.14l36.76,76.33ZM768.79,206.88l-16.63-33.28-18.06,38.83,34.69-5.55Z"/>
        <path d="M1311.39,209.67v20.82h-111.02c.46-3.39-1.47-20.82,2.08-20.82h108.94Z"/>
        <path d="M380.01,705.31l29.36,64.99c-3.34-.69-12.91,1.11-15.04-.22-3.06-1.91-.91-12.64-11.94-13.73-4.13-.41-26.33-.61-29,.3-3.72,1.28-4.94,12.33-6.7,13.42-2.26,1.39-12.86-.51-16.43.22l29.82-63.83c2.36-2.85,15.58-.98,19.91-1.15ZM383.01,745.33c-4.46-8.9-7.34-20.4-13.86-27.75l-11.12,27.75h24.98Z"/>
        <path d="M538.43,770.3c-4.01-.63-12.07,1.29-15.28-.66-2.76-1.68-4.29-11.76-7.84-12.98-2.46-.85-26.56-.76-30.39-.3-7.66.92-6.39,10.9-10.31,13.28-3.22,1.96-11.26.02-15.28.67l30.51-64.54c4.35-.74,15.76-2,18.77.69l29.82,63.84ZM510.68,745.33c-2.26-9.61-7.61-18.75-11.8-27.77-4.19,9.01-9.53,18.15-11.8,27.77h23.59Z"/>
        <path d="M556.47,161.1h11.1v47.88c0,2.86-3.95,12.24-5.78,15.03-19.45,29.6-71.93,16.44-71.93-17.81v-43.02c0-2.97,12.49-2.97,12.49,0v45.79c0,2.57,6.05,11.7,8.41,13.79,8.84,7.82,24.15,8.59,33.93,2.19,3.31-2.17,11.78-12.21,11.78-15.98v-47.88Z"/>
        <path d="M456.39,172.37c1.3,2.23-4.37,10.5-6.23,10.88-.79.16-10.54-6.73-14.04-7.96-20.03-7.09-46.73,1.27-46.78,25.37-.05,22.93,21.4,31.09,41.42,28.32,8.15-1.12,14.04-7.34,21.61-9.59-.17,4.72,6.06,6.65,2.76,10.36-4.83,5.42-25.3,11.81-32.58,11.83-70.1.28-52.34-99.89,16.73-77.77,2.19.7,16.63,7.74,17.11,8.56Z"/>
        <path d="M1204.54,202.73c-2.67-2.8,12.74-20.87,15.98-23.55,20.12-16.64,35.75-7.99,55.73-16.43,34.98-14.79,41.49-62.44,11.43-85.47-28.57-21.89-69.18-8.69-78.97,25.55,34.86-20.87,41.97,38.59,7.93,31.59-24.25-4.99-11.11-42.9,1.02-55.24,44.11-44.89,117.92,10.21,84.28,66.24-22.52,37.51-59.2,11.86-87.66,45.56-1.31,1.55-7.6,14-9.74,11.75Z"/>
        <path d="M1464.04,98.67l-40.26,32.58c38.47,5.43,58.79,46.9,39.1,80.74-19.79,34.02-69.84,35.07-91.02,1.73-7.96-12.53-16.57-42.4,4.36-46.75,28.45-5.91,30.72,35.79,5.24,35.86-5.72.02-8.31-2.82-13.18-4.25,10.36,34.01,51.71,48.13,79.83,25,32.4-26.65,20.6-79.03-20.09-88.22-5.12-1.16-13.79,1.52-13.94-4.77,14.96-5.44,29.98-24.14,43.6-30.66,2.18-1.05,3.87-1.64,6.35-1.26Z"/>
        <path d="M1627.8,703.69c.13,6.46,1.52,7.76-5.57,6.95,2.4,8.32.9,18.25-8.25,21.56-5.62,2.03-17.86-1.75-14.63,6.2,9.38-.36,27.91-1.58,28.53,11.81,1.22,26.69-58.87,20.02-41.75-1.44,2.04-2.55,5.38-3.2,5.57-3.47.82-1.17-3.38-5.05-2.83-8.91.43-3.03,4.19-5.08,4.19-5.64,0-.67-5.74-5.11-6.14-11.59-1.36-22.11,27.51-14.7,40.87-15.47ZM1602.41,710.87c-6.45,1.9-5.7,17.94,4.97,14.79,6.45-1.9,5.7-17.94-4.97-14.79ZM1616.52,749.65c-1.46-1.8-24.8-4.72-21.84,5.81,1.83,6.5,19.99,3.71,21.75.74.57-.97.61-5.91.08-6.55Z"/>
        <path d="M467.66,705.09v13.88h-26.37v51.35h-13.88v-51.35h-24.29c-3.04,0-1.98-11.28-2.08-13.88h66.61Z"/>
        <path d="M298.36,162.49v63.14c0,.32,4.33,3.47,4.86,3.47h46.49v11.1h-54.81c-2.36,0-9.02-5.21-9.02-7.63v-70.08h12.49Z"/>
        <path d="M105.15,644.35c2.77-.32,5.59-1.22,7.19,1.91,1.08,3.65-6.95,12.49-6.95,17.89,0,5.99,11.61,17.55,4.3,20.8-2.87,1.27-53.26-15.47-59.64-19.54-.83-3.6,1.56-4.17,4.06-5.43,5.67-2.86,44.82-14.91,51.04-15.63Z"/>
        <path d="M262.13,667.49c-9.34,1.34-52.9,19.39-58.55,17.97-9.23-2.33,4.69-16.08,4.26-21.08-.34-3.99-11.28-16.76-6.51-20.26,2.91-2.13,51.16,15.62,58.63,16.79,2.74,1.01,2.74,3.99,2.17,6.57Z"/>
        <path d="M1371.06,707.86c6.22-5.29,15.55-7.33,22.75-2.63.81.53,5.01,5.7,5.01,6.1v36.77h-11.1v-28.45c0-11.08-16.65-7.38-16.65,0v28.45h-12.49v-62.45c2.31,0,12.49-.81,12.49,2.08v20.12Z"/>
        <path d="M1642.92,703.84c1.19,1.03,7.82,26.41,8.48,30.38l10.37-29.16c1.69-2.03,8.37-1.71,11.15-1.36,1.87.23,2.51-.76,1.9,1.91-7.56,15.22-11.27,34.46-18.59,49.43-5.15,10.53-12.73,13.54-24.29,12.5.31-1.9-.46-9.27,0-9.72.72-.68,14.76.33,14.73-10.41l-17.51-43.7c2.63.51,12.63-.84,13.74.13Z"/>
        <path d="M1219.81,656.52c5.63,3.04,25.23,8.72,26.04-.92.69-8.19-20.62-10.33-23.9-19.96-7.8-22.88,19.06-28.81,34.74-19.42.78,1-2.74,9.5-4.26,9.6-.45.03-2.87-1.88-4.55-2.23-6.51-1.38-12.72-3.45-15.64,4.48.04,7.36,22.99,10.2,24.94,22.28,3.15,19.44-16.96,24.61-32.14,19.66-7.71-2.51-4.94-6.63-5.23-13.49Z"/>
        <path d="M1452.94,748.11h-12.49v-29.84c0-7.19-16.65-7.04-16.65,2.78v27.06h-12.49v-44.41c6.29.17,10.75-2.3,11.12,5.55,5.7-6.58,20.29-8.81,26.4-2.13.89.97,4.11,7.64,4.11,8.38v32.61Z"/>
        <path d="M1468.2,628.07c1.2-3.85,12.05-3.46,11.79,3.46,5.11-6.47,20.25-7.92,25.75-2.15.84.88,4.09,7.74,4.09,8.4v32.61h-12.49v-29.84c0-5.33-10.35-6.42-13.56-3.15-.28.28-3.09,6.91-3.09,7.31v25.67h-12.49c0-8.14-1.63-37.09,0-42.33Z"/>
        <path d="M702.18,705.09v65.22h-15.26v-51.35l-19.42,2.77c.41-2.91-.98-9.01.59-11.19,1.32-1.84,29.71-6.42,34.09-5.46Z"/>
        <path d="M1266.98,625.99c3.02.36,10.17-1.16,11.88,1.3,4.01,5.77-5.31,34.83,6.8,34.58,16.77-.36,4.96-27.81,9.67-34.58,1.71-2.46,8.86-.94,11.88-1.3v44.41c-7.12-.43-10.23,2.77-10.4-5.54-5.98,6.21-15.9,9.07-23.64,4.19-1.32-.83-6.21-6.66-6.21-7.67v-35.39Z"/>
        <path d="M1432.12,670.39c-6.38.78-8.73.03-11.79-5.52-8.14,11.19-28.5,7.58-28.22-7.69.2-11.05,9.76-12.97,18.67-14.37,5.2-.82,12.09,2.14,8.16-5.73-4.37-8.76-21.77,6.54-21.53-6.31.13-6.92,25.9-6.82,31.19-.58.62.74,3.51,7.17,3.51,7.59v32.61ZM1419.62,649.59c-.47-.51-10.15,1.65-11.85,2.7-13.15,8.1,15.22,18.26,11.85-2.7Z"/>
        <path d="M1556.75,702.63c29.61-1.51,29.13,42.04,7.81,45.39-36.65,5.76-35.29-43.99-7.81-45.39ZM1553.77,713.65c-6.39,2.18-8.74,30.63,9.27,24.51,5.36-1.82,5.41-22.68,0-24.51-1.91-.65-7.36-.65-9.27,0Z"/>
        <path d="M1481.78,702.6c30.43-2.43,33.88,51.4-4.47,45.42-20.11-3.14-21.81-43.31,4.47-45.42ZM1476.86,715.13c-3.22,3.21-3.51,20.92,3.43,22.96,13.64,4.02,15.24-15.01,10.01-22.49-2.32-3.33-10.97-2.94-13.44-.47Z"/>
        <path d="M1279.47,728.68c-.7,15.16,15.12,11.83,24.97,8.33-.45,2.61.69,6.64.09,8.86-.43,1.61-11.55,2.76-13.78,2.79-18.14.21-25.66-9.89-23.77-27.62,3-28.17,47.18-22.1,40.24,7.64h-27.75ZM1296.12,720.34c-.05-10.38-14.98-11.35-16.67-2.09-.51,2.8.35,1.86,2.08,2.1,4.46.63,9.97-.45,14.59-.01Z"/>
        <path d="M1605.59,650.97h-27.75c-.86,15.12,16.54,11.9,26.36,8.33,3.55,15.35-20.25,13.89-29.22,9.1-15.24-8.15-13.08-40.51,7.64-42.47,17.74-1.68,25.1,7.82,22.97,25.04ZM1594.49,644.02c1.38-11.65-15.02-13.93-16.67-2.07-.39,2.83.22,1.82,2.07,2.08,4.46.63,9.98-.44,14.61,0Z"/>
        <polygon points="1261.43 689.82 1261.44 700.93 1246.17 700.92 1246.17 748.11 1233.68 748.11 1233.68 700.92 1218.41 700.93 1218.41 689.82 1261.43 689.82"/>
        <path d="M1347.33,636.98c-1.9,1.38-14.02-6.07-17.91-.57.15,7.32,23.16,7.08,21.92,21.86-.81,9.71-9.77,13.46-18.45,13.62-2.38.04-15.09-2.02-15.77-3.07-1.01-1.58.28-7.14-.17-9.52,4.55,3.45,31.25,4.61,19.94-3.99-7.12-5.41-19.71-5.06-19.75-17.52-.05-16.39,32.06-12.93,33.07-8.24.08.39-2.55,7.2-2.87,7.43Z"/>
        <path d="M1625.02,635.72c-4.07,5.73,23.11,7.99,22.15,22.71-.67,10.13-11.28,13.55-20.07,13.47-9.8-.09-15.34-1.6-13.18-12.6,4.06,2.15,20.91,5.82,20.85-.72-.04-4.74-17.04-8.5-19.56-12.74-4.39-7.38-.86-17.74,8.03-19.53,4.83-.98,23.27-1.83,22.05,5.28-1.98,11.54-12.53-1.06-20.28,4.13Z"/>
        <path d="M1537.6,657.9c1.9.41,1.54-1.46,2.03-2.79,1.54-4.2,8.05-27.99,9.2-28.98,1.09-.94,9.87.36,12.35-.13l-15.38,42.2c-1.24,3.21-12.83,2.98-13.92,1.38l-15.11-43.58c3.35.38,9.63-1.28,11.82,1.36,2.96,3.56,7.66,24.86,9.01,30.54Z"/>
        <path d="M1373.84,658.6c1.72,6.08,11.91,1.47,12.48,2.09-.32,1.89.51,9.2,0,9.69-.47.45-11.41,1.48-12.99,1.34-19.79-1.73-8.84-33.09-11.96-36.03-1.1-1.03-5.68,2.2-5.6-2.09.09-5.38,4.85-5,7.57-9.1,3.12-4.71.96-9.89,10.51-8.23-1.6,14.22,1.79,8.07,12.51,10.52l-.02,8.92h-12.5c1.1,6.13-1.5,17.59,0,22.89Z"/>
        <path d="M1669.42,658.6c1.72,6.08,11.91,1.47,12.48,2.09-.37,1.99.63,8.92-.07,9.64-2.62,2.69-17.86,1.23-21.4-2.74-6.23-6.99-2.25-30.72-3.49-31.89-1.1-1.03-5.68,2.2-5.6-2.09.09-5.38,4.85-5,7.57-9.1,3.12-4.71.96-9.89,10.51-8.23-1.6,14.22,1.79,8.07,12.51,10.52l-.02,8.92h-12.5c1.1,6.13-1.5,17.59,0,22.89Z"/>
        <path d="M1348.75,705.21c.48.69-.92,9.27-1.28,9.59-1.97,1.77-20.43-9.79-20.92,10.41-.56,23.2,21.23,9.22,22.3,10.41,4.81,18.74-26.51,15.89-31.99,3.55-10.67-23.99,7.21-42.79,31.89-33.96Z"/>
        <rect x="1515.38" y="687.05" width="11.1" height="61.06"/>
        <path d="M123.37,608.08c4.41,6.38-8.89,8.37-11.7,10.92-3.84,3.49-3.68,13.91-9.44,12.4-4.44-1.17-11.02-26.32-10.63-31.77,1.43-1.44,30.84,7.1,31.77,8.45Z"/>
        <path d="M206.94,631.34c-1.15-.7-3.09-10.24-4.69-11.95-2.63-2.82-23.26-5.71-8.35-12.51,4.52-2.06,29-12.19,27.89-2.75-.2,1.75-7.52,23.8-8.33,25.1-1.33,2.16-4.23,3.52-6.53,2.12Z"/>
        <path d="M123.36,720.22c-.94,1.37-30.2,10.48-31.67,8.36-1.56-2.25,6.46-30.6,10.53-31.67,6.42-1.69,5.65,10.28,8.84,13,2.48,2.12,16.95,3.55,12.3,10.32Z"/>
        <path d="M202.27,710.29c1.79-2.05,3.35-17.44,9.44-12.24,1.34,1.14,9.46,23.84,9.79,26.44.46,3.59-1.65,5.74-5.34,5.35-4.06-.43-28.11-8.57-27.37-12.82,1.78-4.7,11.43-4.38,13.48-6.73Z"/>
        <rect x="1444.61" y="625.99" width="11.1" height="44.41"/>
        <path d="M417.36,788.7c4.09,4.7-1.3,11.24-5.18,14.22,2.2.97,6.22,5.68,7.63,6.23,2.87,1.14,1.77-2,2.41-3.05,1.15-1.87,3.58-4.1,5.19-2.48,1.5,1.51-2.79,6.94-2.75,9.04.06,3.28,4.75,4.07,4.14,7.59-3.88,2.14-8.23-3.93-9-3.95-1.99-.03-9.31,8.95-18.08,1.21-9.31-8.21,3.33-14.99,3.43-15.96.19-1.93-7.39-7.11-1.39-12.59,2.88-2.62,11.14-3.1,13.6-.27ZM413.54,791.13h-6.95c-.68,11.69,6.89,10.46,6.95,0ZM416.31,814.7c1.02-1.37-8.23-14.28-11.8-6.9-3.71,7.67,5.92,10.13,11.8,6.9Z"/>
        <path d="M299.34,787.26c24.76-5.66,25.7,29.37,9.1,32.69-23.54,4.71-24.71-29.12-9.1-32.69ZM300.73,791.42c-10.24,3.07-8.89,27.59,6.32,24.44,10.45-2.16,10.23-29.41-6.32-24.44Z"/>
        <path d="M359.42,786.96c8.76-.28,24.68-1.65,21.97,11.47-.96,4.66-5.66,4.55-5.38,7.17.48,4.4,6.49,9.13,7.02,13.96-8.01,2.95-8.24-11.91-14.57-13.19-7.08-1.43-1.3,8.16-4.14,12.55-1.76,2.72-4.9.22-4.9-.74v-31.22ZM375.89,800.66c3.87-6.23-5.52-11.89-10.92-9.55v11.11c.63.63,10.21-.42,10.92-1.57Z"/>
        <path d="M471.82,786.96c5.96.04,19.26-1.5,20.8,6.29,1.74,8.84-4.97,10.27-5.15,12.42s6.09,10.37,7.92,12.52c-10.01,7.72-7.77-16.49-19.41-11.8v13.89s-4.16,0-4.16,0v-33.31ZM486.75,792.85c-2.25-2.17-7.77-1.7-10.77-1.73v11.11c6.54,2.72,16.58-3.79,10.77-9.38Z"/>
        <path d="M517.43,810.73c-.93-.6-9.81-.46-11.39.04-4.32,1.38-2.17,11.32-9.23,9.48,1.27-4.3,9.78-32.16,11.23-33.15.76-.52,3.54-.36,4.55.02,3.61,1.34,9.5,26.64,13.33,31.07-5.84,6.9-7.42-6.78-8.48-7.46ZM514.85,806.38c1.08-1.09-1.99-10.74-3.47-12.48l-4.86,12.47h8.32Z"/>
        <path d="M331.66,786.96v25.67c0,4.52,15.26,4.21,15.26-1.39v-24.29h4.16v27.06c0,3.33-9.54,6.59-13.16,6.33-4.48-.32-11.81-4.4-11.81-9.11v-24.29c0-.28,4.56.19,5.55,0Z"/>
        <path d="M556.47,786.96h18.05s0,4.16,0,4.16h-13.89s-.02,8.92-.02,8.92l13.92,1.5c-.12,6.35-13.55,1.75-13.91,4.25l.02,8.93c6.75,1.03,16.14-3.75,13.89,5.54h-18.05s0-33.3,0-33.3Z"/>
        <path d="M537.06,813.32l9.9-26.16,5.35-.19c-5.09,8.38-6.27,22.22-10.8,30.12-.91,1.59-1.43,3.3-3.75,3.22-2.78.27-2.67-1.84-3.44-3.57-1.32-3-10.89-28.68-9.76-29.77,1.88-1.82,4.66,1.16,5.84,3.16,3.16,5.38,5.1,16.8,6.66,23.19Z"/>
        <path d="M1350.25,277.67c9.02-1.67,4.01,3.66,6.24,9.73,3.26-4.08,4.99-11.25,11.8-9.71-10.09,11.04-5.74,12.06,1.4,22.87-6.04,5.21-9.58-8.88-11.81-8.98-3.02-.13-1.74,9.31-2.09,9.68-.77.82-5.54-.6-5.54-2.08v-21.51Z"/>
        <path d="M287.26,786.96v4.16c-.49.52-9.71-.48-9.71,0v27.06c0,2.39-5.55,2.39-5.55,0v-27.06c0-.49-9.23.51-9.72,0v-4.16h24.99Z"/>
        <path d="M1200.37,277.67c7.03-.57,18.66-.85,18.02,8.92s-11.77,8.48-12.42,9.17.44,5-.05,5.51c-.19.2-5.55.27-5.55-.01v-23.59ZM1205.93,291.54c5.26,1.53,9.58-6.41,5.61-9.08-6.83-4.6-6.02,4.03-5.61,9.08Z"/>
        <path d="M587,786.96v27.75c0,.68,11.1-1.49,13.2,1.37,4.44,6.06-18.75,5.21-18.75,2.1v-31.22c0-.28,4.56.19,5.55,0Z"/>
        <path d="M1268.36,301.25c-8.48-3.4-12.32-3.4-20.8,0l9.72-23.58c1.44-1.1,10.87,21.14,11.08,23.58Z"/>
        <path d="M1423.79,301.25c-4.73,1.96-5.71-2.53-6.5-2.72-6.25-1.53-10.08,1.69-15.7,2.72l9.73-23.57c2.12-1.57,10.5,21.65,12.47,23.57Z"/>
        <path d="M466.27,786.96v4.16c-.49.52-9.71-.48-9.71,0v29.14h-4.16v-29.14c0-.49-9.23.51-9.72,0v-4.16h23.6Z"/>
        <path d="M1315.19,289.12c10.19,10.51-13.07,16.7-14.9,8.66-1.54-6.79,9.46.98,11.09-.68.19-.19.24-4.89-.17-5.38-.55-.66-7.98-.62-9.33-5.31-.61-2.12-.07-6.99,1.52-8.39,4.4-3.84,16.92,1.41,9.36,4.58-1.66.7-5.68-5.47-6.93,1.31,1.81,2.98,7.59,3.41,9.35,5.22Z"/>
        <path d="M1470.98,341.49c-3.74,1.82-4.37-2.82-4.87-2.81-2.67.06-3.32,3.47-6.23,2.82v-15.26c14.62-.76,9.44,5.68,11.09,15.26Z"/>
        <path d="M1461.26,277.67v19.43c0,.56,10.57-.56,11.11,0v4.15s-15.27,0-15.27,0v-23.59h4.16Z"/>
        <path d="M1283.64,341.5v-15.26c16.82-.49,13.45,11.9,0,15.26Z"/>
        <path d="M1274.97,327.96c1.89,1.86,1.92,6.3.46,8.45l-9.83,5.09v-15.26c2.64-.01,7.43-.18,9.36,1.73Z"/>
        <path d="M1446.93,609.55c11.17-3.94,14.77,11.68,2.54,11.03-7.15-.38-7.45-9.3-2.54-11.03Z"/>
        <path d="M1247.17,326.49c12.62-3.68,14.78,19.57-1.42,14.73-6.15-1.84-4.66-12.96,1.42-14.73ZM1248.52,329.17c-5.77,1.44-5.39,12.42,3.7,9.39,4.91-1.64,1.63-10.72-3.7-9.39Z"/>
        <path d="M1323.87,334.57l2.78-8.33v15.26s-8.99-6.95-8.99-6.95c-2.1-.05,1.69,8.75-3.48,6.95v-15.26s9.69,8.33,9.69,8.33Z"/>
        <path d="M1414.07,326.25v15.26s-9-6.95-9-6.95c-2.1-.05,1.69,8.75-3.48,6.95v-13.86s9.69,6.93,9.69,6.93c1.21-1.66-2.57-9.75,2.78-8.32Z"/>
        <path d="M1347.46,330.4c-10.3-4.48-13.76,7.19-3.44,9.68l-.71-5.49,5.54-.02v6.95c-6.92.36-14.03,1.4-13.97-7.67.04-6.5,11.54-11.69,12.58-3.44Z"/>
        <path d="M1393.26,326.25c1.49,4.95-7.98,1.24-6.92,6.22.56,2.66,5.65,1.37,6.92,2.79l-6.93,3.46,8.32,2.78-11.11.02v-15.28s9.71.01,9.71.01Z"/>
        <path d="M1223.96,326.25l.81,8.34,6.14-.02c1.12-1.1-2.56-9.9,2.76-8.33v15.25c-4.61,1.35-1.59-3.78-3.52-4.25-.92-.22-5.69-.09-6.1.25-.87.74,1.6,5.32-2.86,4,.36-4.22-.53-9.1-.01-13.2.26-2.03,1.07-4.31,2.77-2.05Z"/>
        <path d="M1451.54,326.25c1.53,5.13-5.95,1.75-6.94,2.77.23,1.34-.33,5.2,0,5.54.41.42,13.92.25,0,3.47l6.95,3.46h-9.71s0-15.26,0-15.26h9.71Z"/>
        <path d="M1375.22,327.65c3.99,4.15-6.9.85-8.41,1.95-1.99,1.45-1.98,7.09,0,8.54,3.21,2.35,8.76-3.49,8.4,1.26-7.2,7.05-18.15-3.05-11.72-10.33,2.53-2.86,9.51-3.74,11.73-1.43Z"/>
        <path d="M1211.46,330.4c-.29.43-6.56-4.33-5.53,1.37,11.29,2.11,8.76,12.04-2.77,9.73-1.29-5.87,5.48.56,6.92-3.48,1.26-3.54-9.69-2.37-6.27-9.01,2.8-5.44,9.56-1.44,7.66,1.4Z"/>
        <path d="M1433.5,326.25c1.19,4.02-3.13,2.39-3.97,5-1.13,3.54,2.21,11.33-2.96,10.25-.77-1.01.66-9.34.08-11.73-.46-1.93-5.67,1.04-4.25-3.52h11.09Z"/>
        <path d="M1305.83,326.25c-.36,4.22.53,9.1.01,13.2-.26,2.02-1.06,4.3-2.77,2.05.36-4.22-.53-9.1-.01-13.2.26-2.02,1.06-4.3,2.77-2.05Z"/>
      </g>
      <g>
        <path d="M3061.81,195.07c-15.67-.08-31.41.07-47.08,0l18.76-49.33c2.72-5.48,19.09-16.25,24.11-16.25h217.78l-11.94,33.46-75.28.4-33.87,97.3h-45.41l37-97.54h-64.74c-10.07,0-16.15,24.24-19.34,31.95,15.65.08,31.55-.77,47.11.86-8.63,18.68-12.64,50.39-32.51,59.98-1.83.88-12.76,4.74-13.75,4.74h-71.47l11.96-33.43c13.68-1.84,33.42,3.31,45.55-4.09,5.76-3.51,10.19-20.96,13.12-28.07Z"/>
        <path d="M2523.68,835.79h-37l-4.34-60.57-7.44.02-3.35,60.55h-37c1.47-35.38,5.73-70.77,9.12-106.07,1.44-8.18,29.45-31.86,35.41-31.96,5.96-.1,31.52,22.64,34.06,28.32,2.44,5.45,3,19.47,3.8,26.47,3.17,27.56,4.38,55.6,6.73,83.23ZM2481.63,760.12c-.71-5.57,3.05-16.64-5.03-16.82v16.82s5.03,0,5.03,0Z"/>
        <path d="M2178.94,716.39c.7,30.03,3.86,60.02,5.03,90.02.15,3.83.95,2.43,4.21,2.48l5.89-92.5h37l-8.55,103.28c-1.9,21.5-31.66,19.07-47.86,17.87-11.51-.85-20.51-2.34-23.94-14.74-2.57-35.49-7.53-70.9-8.78-106.41h37Z"/>
        <path d="M2177.25,694.53h-34.47c-1.39,0-2.97-4.08-2.61-5.8l1.77-113.6h51.29c2.28,0,13.81,3.9,16.6,5.26,23.58,11.42,22.11,63.87-5.65,72.96-5.47,1.79-26.93,2.38-26.93,5.02v36.16ZM2181.68,602.15c-6.41,1.86-6.67,26.86,1.43,26.88,9.08.03,8.73-29.82-1.43-26.88Z"/>
        <path d="M2298.33,575.13v31.95h-24.38c-2.21,0-6.79,8.15-2.6,11.02,4.25,2.91,20.05-1.74,22.89,2.33.48,5.43,3.03,28.49-2.02,30.14-6.04,1.98-26.08-4.33-22.26,7.55,2.27,7.07,22.37,3.73,28.38,4.45v31.95h-63.9v-119.4h63.9Z"/>
        <path d="M2384.1,575.13v33.63c0,.96-18.5-2.01-18.5,2.52v83.24h-37v-84.08c0-1.29-17.8-2.27-20.18-1.68v-33.63h75.68Z"/>
        <path d="M2323.56,716.39v83.24c0,.18,2.34,2.52,2.52,2.52h26.07v33.63h-65.59v-119.4h37Z"/>
        <path d="M2397.55,716.39v81.56c0,.3,3.91,4.2,4.2,4.2h24.38v33.63h-63.9v-119.4h35.32Z"/>
        <rect x="2239.48" y="716.39" width="37" height="119.4"/>
        <path d="M2401.76,696.21c-10.59-3.03,5.86-6.98,5.98-7.68,2.22-12.86-.63-35.93-.17-50.41.72-22.77.94-47.68,3.63-70.37,3.64-30.81,23.4-2.65,31.09,8.93,4.29,1.06,12.44-11.32,20.01-11.8,8.76-.55,14.62,8.18,21.89,11.62,5.11-7.26,27.47-36.66,30.97-13.87,1.24,8.04,1.54,24.45,1.86,33.45,1.12,30.72.19,61.7,1.51,92.43.29,1.69,9.35,1.52,10.18,2.67.97,1.33-1.61,5.03-2.51,5.03h-124.44ZM2416.05,600.36l21.74-19.57c-.17-2.52-19.22-27.73-20.07-19.94,1.84,4.29-1.67,11.05-1.67,13.45v26.07ZM2510.22,598.67v-36.16c0-.48-1.92-1.73-2.54-2.51-1.3.11-2.77-.46-3.98.22-1.03.57-13.72,17.93-13.72,19.11,0,4.8,16.36,15.76,20.24,19.34ZM2513.59,689.48l-2.03-79.53c-1.79-6.02-43.75-40.47-49.18-39.95-2.73.26-17.63,13.15-21.13,16.03-4.51,3.72-25.08,21.02-26.13,24.32l-2.43,79.13h100.9Z"/>
        <path d="M3256.88,176.58l-31.11,84.08h-34.47l21.88-59.71c.84-5.49-11.28-.92-13.47-2.53l9.25-21.85h47.93Z"/>
        <path d="M2316.83,58.86v76.52c0,.36-1.14.9-1.3,1.68.36,4.13,9.73,1.45,9.72,3.36-1.84,1.96-6.11-.11-8.54,1.57-2.45,1.69-1.95,42.38-1.64,48.95.36,7.54,2.32,16.71,3.43,24.3h-10.08c4.79-23.78,3.08-48.17,3.35-72.3-22.88,3.12-60.99,11.77-63.89,39.51-3.81,36.41,40.07,31.7,38.84,3.34-.54-12.53-16.92-14.94-16.95-18.46-.03-2.94,13-3.46,14.86-2.28,2.71,1.72,5.5,21.29,5.12,25.63-3.06,35.15-52.08,33.29-52.06-4.85.02-36.39,42.7-41.77,70.71-44.58l-23.16-4.56c-57.71-23.81-19.34-84.72,31.58-77.83ZM2306.51,62.46c-8.43-5.24-29.82,10.19-34.07,18.43-15.81,30.64,7.64,54.16,37.66,57-.5-9.02-.38-73.44-3.58-75.44Z"/>
        <path d="M3377.12,129.49c.9.14,2.45,2.19,4.22,1.7-2.09,2.79-2.73,11.15-4.98,12.67-7.21,4.84-44.22-12.03-46.88,12.13-.96,8.74,16.16,4.84,23.66,5.89,19.25,2.71,16.37,14.47,9.48,28.78-12.96,26.91-45.56,21.67-70.42,19.54-.98-.89,3.72-13.52,4.99-14.43,5.01-3.59,42.2,13.02,48.04-9.06,5.02-18.99-22.41-3.93-33.79-15.07-8.88-8.69,4.57-31.51,13.81-36.85,1.78-1.03,13.72-5.29,14.89-5.29,10.66,0,27.3-1.5,37,0Z"/>
        <path d="M3451.8,129.65c1.05.9,4.67,23.07,6.91,26.74,1.53,1.18,23.74-24.59,26.92-26.03,5.58-2.53,15.56,0,21.83-.85l-41.79,39.85,13.19,40.85c-4.92-.91-18.57,1.64-21.95-.73-2.71-1.9-4.6-22.04-7.49-26.18-5.38.11-21.91,23.39-27.76,26.05-5.59,2.53-15.56,0-21.83.85l42.94-40.31-12.66-40.38c3.74.71,20.24-1.09,21.69.16Z"/>
        <path d="M2337.01,58.86c20.93-3.91,57.28,11.81,60.39,34.62,2.57,18.9-7.36,37.08-25.85,42.8l-26.12,4.97c33.58,3.12,79.34,10.73,69.87,55.61-5.16,24.47-44.83,25.02-49.31.36-1.27-6.99-1.73-30.79,7.17-32.4,5.02-.91,15.4-.97,9.83,5.13-4.59,5.03-15.73,5.04-15.76,15.87-.09,27.77,41.21,32.03,40.47.1-.69-29.49-40.53-39.66-63.95-42.96v68.11c0,.71,3.54,2.45,3.36,4.19h-11.77c1.84-3.18,3-5.37,3.4-9.19,2.01-18.96-1.57-41.23-.04-60.58.21-6.23-7.25-2.06-8.4-5.86,1.32-.33,8.4.4,8.4-.02v-24.38c0-1.68-4.36-11.74-3.36-12.6h11.76c-2.53,11.6-4.03,23.39-3.35,35.31,10.26-1.08,21.96-4.82,30.11-11.08,20.15-15.47,16.22-46.08-4.65-58.95-24.15-14.9-27.7-1.69-22.11,21.25h-11.77c-.83-.61,1.68-2.15,1.68-2.51v-27.75Z"/>
        <path d="M3581.45,129.49c1.03.96-2.89,13.09-5,14.33-3.03,1.78-7.47.08-10.71,1.06-4.66,1.42-20.19,52.26-24.87,60.9-5.17,9.54-11.63,6.31-21.67,5.24l23.54-63.94c.72-5.53-12.76-.78-15.11-2.48,2.06-1.99,4.25-15.12,5.04-15.12h48.77Z"/>
        <path d="M3626.85,129.49l-30.2,81.63c-1.93,1.29-13.15,1.21-16.1.78-2.51-.37-2.67,1-2.5-2.53l23.52-62.29c1.54-5.17-11.85-1.06-13.39-2.46,1.21-1.83,4.24-15.13,5.04-15.13h33.63Z"/>
        <path d="M3537.73,743.32c1.05-1.35,6.94,1.48,8.25-7.68.96-6.75.92-51.58-1.38-55.13-2.44-3.76-9.95-.39-8.54-6.15,21.6.15,40.19-6.04,60.02,6.39,30.06,18.85,13.43,67.36-22.2,67.58-3.2.02-6.45-1.77-10.01-1.75-4.35.03-22.2,1.75-23.44,1.48-1.85-.4-3.63-3.53-2.69-4.75ZM3556.62,739.54c.93.78,13.53,3.72,15.56,3.74,31.29.31,39.39-39.75,16.82-57.16-8.39-6.47-23.79-10.5-32.55-3.97,1.19,9.55-5.74,52.45.17,57.39Z"/>
        <path d="M3534.36,743.31c-.28,8.3-12.06,4.95-16.68,2.37-10.45-5.84-16.07-26.3-22.72-31.08-14.45-10.39-14.27,12.13-12.37,20.77,2.04,9.25,13.01,7.9,13.06,10.45.09,5.32-15.22.82-17.7.78-2.89-.05-11.59,2.7-12.52,1.74-4.09-4.2,4.86-5.57,5.86-6.69,3.81-4.28,3.85-54.04.68-59.53s-8.7-2.21-8.22-7.75c18.91.09,59.17-8.45,51.76,24.03-1.64,7.18-11.72,10.26-11.25,13.54s22.25,34.78,30.12,31.39ZM3484.15,679.64c-2.34,1.45-2.92,24.3-1.19,26.77,3.61,5.17,23.74,2.74,23.94-11.34.16-10.83-14.41-20.62-22.75-15.43Z"/>
        <path d="M3049.2,674.35c14,3.1,17.09,24,4.24,31.11,22.61,9.14,17.7,37.49-4.98,42.14-12.91,2.65-25.74-2.51-38.77-.96.58-3.7,5.34-2.31,6.88-4.43,2.52-3.47,2.48-59.17.03-62.15-3.24-3.95-9.82.11-8.58-5.72,11.73,1.76,30.45-2.39,41.2,0ZM3032.57,678.11c-6.1,1.2-5.55,23.91-3.66,26.61,2.44,3.48,15.9,1.36,19.38-1.02,13.17-9.02-3.87-27.92-15.72-25.59ZM3028.18,709.66v29.43c0,5.46,30.43,9.33,30.42-11.77,0-15.92-17.78-18.5-30.42-17.66Z"/>
        <path d="M3405.71,674.35c4.44.79,12.19,7.29,13.58,11.7,3.56,11.32-9.43,19.88-7.69,21.92,17.43,1.29,18.22,25.04,6.66,34.42-13.98,11.35-34.19,2.52-50.38,4.26-.42-6.26,6.81-1.43,8.36-9.28,1.4-7.08,1.17-44.33.12-52.16-.26-1.93-.24-3.51-1.58-5.14-3.24-3.95-9.82.11-8.58-5.72,11.88,1.47,28.27-2,39.52,0ZM3386.37,679.39v24.38c0,4.23,19.8,3.43,22.72-2.5,6.72-13.65-10-26.83-22.72-21.89ZM3386.37,741.62c41.33,11.08,39.59-37.32,0-31.95v31.95Z"/>
        <path d="M3317.42,674.35c.29,4.36-4.18,4.86-5.01,9.28-1.34,7.16,1.21,16.57-1.7,24.35,1.24,1.57,29.71-23.72,30.24-26.1.94-4.24-6.81-2.57-5.03-7.53h25.23c.81,3.96-.49,2.7-2.17,3.77-5.61,3.59-38.97,25.33-38.06,30.47.55,3.11,23.52,22.32,26.76,27.16l15.15,10.9c-5.55-.66-13.4,1.43-18.46-.86-7.81-3.54-22.53-26.24-31.98-31.08v24.38c0,2.36,7.38,5.21,10.1,4.21v3.35h-26.92c-.62-5.7,5.45-2.71,6.69-9.29.97-5.11.68-53.9-.78-56.32-2.45-4.07-10.61-1-9.28-6.7h25.23Z"/>
        <path d="M3369.56,210.2l28.72-78.05c3.25-4.54,13.23-2.89,18.4-1.87l-27.77,78.27c-2.91,3.51-14.56.89-19.36,1.65Z"/>
        <path d="M3186.25,746.66c-3.25-2.77,3.23-3.47,3.43-4.44.7-3.3-3.67-18.55-5.91-20.83-2.29-2.34-19.71-2.34-23.55-1.6-5.96,1.15-13.58,17.14-10.23,21.97,1.7,2.46,7.55-.4,5.99,4.9-3.3-1.77-23.83,4.01-23.5-.83,5.32-3.22,8.03-7.21,10.97-12.54,9.36-16.96,15.62-38.87,25.07-55.65,1.46-2.6,1.55-4.44,5.12-4.98,3.83-.58,2.1,1.44,2.95,3.73,5.38,14.45,18.15,50.35,26.12,61.41,3.59,4.98,7.57,4.35,10.46,8.88-3.99-.71-25.78.96-26.91,0ZM3181.21,713.01l-10.92-23.52-10.94,23.52h21.86Z"/>
        <path d="M3282.1,679.38c.57.73,1.58,15.84,1.68,18.5-1.67,1.93-11.87-11.66-14.29-13.44-12.69-9.32-33.41-7.11-41.54,7.21-17.53,30.86,17.85,68.16,45.63,45.63,3.97-3.22,5.23-8.63,10.21-9.12,2.12,12.61-4.85,15.89-15.46,19-18.75,5.49-45.91.58-53.04-20.29-9.19-26.93,8.47-54.16,37.4-53.86,8.97.09,16.73,5.53,24.24,7.12,1.69.36,4.9-1.12,5.18-.76Z"/>
        <path d="M3100.49,674.35c-9.82,6.1-9.47,16.48-10.16,27.68-.48,7.76-1.16,26.83.12,33.66,1.89,10.08,23.96,5.45,30.69,2.2,2.44-1.18,11.88-11.75,8.93-1.19-1.74,6.24-10.54,11.62-16.97,11.81-10.81.31-21.94-1.48-34.48-.95-10.81.46-.61-4.03.75-6.03,3.18-4.73,4.11-56.65,1.81-60.46-2.45-4.07-10.61-1-9.28-6.7h28.59Z"/>
        <path d="M3457,674.35c3.72,2.94-5.58,4.54-6.33,5.45-3.66,4.46-3.42,56.03,1.17,61.08,3.63,4,9.43-.07,8.52,5.77h-28.59c-1.81-5.45,6.09-3.09,6.79-6.18.69-3.03,1.47-12.71,1.69-16.46.35-5.98.67-40.4-.88-42.98-2.45-4.07-10.61-1-9.28-6.7,4.11.78,25.58-1.05,26.91,0Z"/>
        <path d="M3391.03,227.32c21.48-2.85,12.75,27.72-2.88,32.58-29.74,9.24-22.08-29.27,2.88-32.58ZM3387.6,232.37c-10.46,2.23-19.66,22.82-6.72,24.65,14.87,2.1,26.38-28.83,6.72-24.65Z"/>
        <path d="M3490.64,260.64c-9.83,2.11-5.65-4.2-9.37-9.96-8.12-12.53-6.91,13.19-15.84,9.96,1-4.39,11.06-31.56,12.9-32,7.87-1.89,23.53-1.68,18.17,10.12-3.86,8.5-16.4,4.29-5.85,21.88ZM3477.19,243.83c9.58,3.71,22.26-10.24,9.23-11.86-8.29-1.03-7.09,5.06-9.23,11.86Z"/>
        <path d="M2276.47,260.66v40.36c-1.84-.11-3.97.37-5.69-.2-6.65-2.21.31-33.18-3.46-38.58-1.71-2.45-6.91-2.05-9.39-.78-3.96,2.04-1.64,7.1-4.99,7.59l-.05-9.11c.33-2.22,20.4-.97,23.57.71Z"/>
        <path d="M3322.47,228.72c-2.13,5.09-10.97,22.33-8.23,26.7,18.79,9.15,16.97-25.05,25.89-26.72,2.33-.44,3.18.03,2.46,2.46-1.74,5.89-8.88,21.66-13.35,25.34-7.19,5.92-23.4,7.53-21.24-4.27.42-2.33,7.01-22.5,7.95-23.3,1.05-.89,4.69.06,6.52-.21Z"/>
        <path d="M2464.81,258.98c4.03,10.88,8.7,27.02,14.74,36.56,2.08,3.29,4.85,2.75,5.44,5.46h-16.81c7.33-12.54-20.68-35.06-3.38-42.02Z"/>
        <path d="M2584.22,263.18c-.28-1.04-3.48-2.35-3.36-4.19,21.43-2.7,6.82,28.56,13.48,41.16l-11.79.85c-.64-1.82,1.68-3.67,1.68-4.19,0-7.63,1.51-28.03,0-33.63Z"/>
        <path d="M2071.31,298.5c.06.47,2.54,1.91,1.68,2.51-9.3,1.26-9.56-.68-10.17-9.16-.72-10.09,4.05-27.63-4.99-32.02.05-1.83,13.47-1.42,13.47,1.68,0,10.99-1.4,26.79,0,37Z"/>
        <path d="M2506.85,299.36c.28,3.11-7.3,1.79-8.89,1.31-6.78-2.09-22.19-37.43-16.31-41.68,2.83-.59,3.43.74,4.8,2.74,7.04,10.28,8.29,32.3,20.39,37.63Z"/>
        <path d="M2370.63,258.98c1.58,1.18,11.28,31.01,14.73,36.58,2.03,3.28,4.93,2.7,5.47,5.44-7.54.72-10.79.32-14.69-6.3-1.74-2.96-11.62-26.29-11.82-28.44-.26-2.91,3.74-9.21,6.32-7.28Z"/>
        <path d="M3460.37,260.66h-5.04c.34-8.84,1.46-9.19-7.65-8.5-11.13.84-6.43,8.24-15.9,8.48-1.49-1.18,20.24-30.11,21.88-31.08,2.55-1.52,5.64-.77,8.39-.84.84.59-1.68,2.15-1.68,2.51v29.43ZM3455.33,248.9c.53-.55-.28-12.19,1.66-15.14-5.72,2.98-8.04,9.44-11.74,14.3,1.26,1.3,9.74,1.2,10.09.84Z"/>
        <path d="M3302.28,228.7l-1.68,31.97h-5.03c-2.28-2.25,6.25-10.57-9.36-8.52-8.1,1.06-5.6,9.4-14.19,8.49,7.13-7.04,14.55-23.8,21.73-29.54,2.9-2.32,4.8-2.89,8.53-2.4ZM3297.25,248.9l-.84-15.14-10.94,15.11,11.78.03Z"/>
        <path d="M2199.1,299.36c.28,3.11-7.31,1.8-8.89,1.31-5.03-1.55-16.89-27.64-17.73-32.88-.56-3.49.76-5.64,1.42-8.8,3.38-.69,3.93,1.61,5.38,3.84,6.83,10.55,7.88,31.17,19.81,36.53Z"/>
        <path d="M3527.62,228.72c1.38,6.09-8.5,2.58-12.61,3.35-4.84.91-5.34,6.48-7.56,10.08l15.13.85c-9.21,5.48-15.97-1.58-20.16,11.79l14.28.82c2.01,8.73-15.21,3.9-21.01,5.04,2.37-3.9,10.58-30.79,12-31.71,2.42-1.56,15.81.65,19.94-.22Z"/>
        <path d="M3438.51,228.72c.17.18.16,4.84-.02,5.02-.89.93-10.4-2.46-15.19-.96-10.66,3.34-18.31,23.92-4.21,24.28.71.02,14.49-3.5,9.32,1.89-.93.97-8.84,1.88-10.92,1.85-23.3-.31-9.08-30.2,9.2-33.12,1.97-.32,11.41.61,11.82,1.03Z"/>
        <path d="M3519.22,166.49c-1.27,1.75-2.75,11.77-3.36,11.77h-25.23c-.19-1.61,2.75-11.77,3.36-11.77h25.23Z"/>
        <path d="M2088.13,279.14c21.63,4.55,11.67,26.75-8.4,21.87,1.84-3.36,5.97-.43,10.23-4.04,8.76-7.43.68-19.61-10.23-17.82.3-3.26,5.85-2.11,7.58-4.99,1.8-3,1.41-9.72-1.54-11.98-2.91-2.23-7.56.01-7.73-3.17,16.15-1.53,22.98,8.55,10.09,20.14Z"/>
        <path d="M3287.16,792.04c-1.05-1.1-.88-3.7,2.37-3.23,5.57.81,10.45,4.12,12.78-4.3-3.93-.28-9.81,2.75-13.58.09-1.98-1.4-2.37-9.11-1.33-10.8,2.55-4.08,18.78-3.82,19.93,7.48,1.26,12.42-15.21,15.92-20.16,10.75ZM3300.61,775.26c-13.36-1.54-13.56,8.2,0,6.71v-6.71Z"/>
        <path d="M3372.92,228.71c1.14,6.53-6.42,1.05-10.95,5.03-3.31,2.9-6.33,17.67-9.14,22.81-1.63,2.99-1.47,4.89-5.97,4.12l9.27-27.73-10.11-.88c-.12-1.08,2.24-3.35,2.52-3.35h24.38Z"/>
        <path d="M3338.77,772.22c20.87-6.38,17.5,28.87-.77,20.28-7.94-3.73-6.6-18.03.77-20.28ZM3339.45,775.42c-3.02,2.06-2.55,15.92,3.84,14.86,7.86-1.3,4.92-20.82-3.84-14.86Z"/>
        <path d="M2417.72,526.37l-1.69,20.17c-2.28-2.63-16.12-6.14-16.64-6.87-1.18-1.68.11-7.85,2.4-8.27s6.94,3.99,7.51,3.38c1.01-1.07.27-10.6,8.42-8.41Z"/>
        <path d="M3329.19,771.89c1.88,1.83-10.3,26.28-15.12,21.84-1.42-1.31,9.36-15.55,10.08-18.47-.71-.52-21.56,1.52-15.13-3.37h20.17Z"/>
        <path d="M3280.43,771.9c-2.68,6.62-2.69,15.16,0,21.83h-6.72c1.83-3.91,2.3-8.46,1.82-12.71-.28-2.45-10.91-8.83,4.9-9.12Z"/>
        <path d="M2355.52,301l-10.09-.82,5.77-6,7.66-13.34c.45,7.15-6.52,13.42-3.34,20.16Z"/>
        <path d="M2162.11,301.01c-.29.3-7.52.58-8.39-.82l4.76-5.33,8.67-15.69c-2.25,3.2-4.26,21.03-5.04,21.84Z"/>
        <path d="M2447.99,301c-.29.3-7.51.6-8.38-.82l10.07-12.61c-1.06,2.38-1.21,12.94-1.68,13.43Z"/>
        <path d="M2466.51,644.11c-4.38,5.17,13.52,6.83,17.77-.02.82-1.32-2.07-8.64,1.56-8.38.4.03,5.4,4.97,5.47,5.83.61,7.46-15.59,11.86-16.35,12.71-1.23,1.36,7.78,30.07-10.98,30.07-19.44,0-9.56-28.89-10.92-30.13-.34-.31-5.74-.17-9.05-1.9-7.74-4.05-14.66-14.62-1.05-14.94-2.29,10.55,14.25,17.77,16.82,6.77-30.06-16.34,15.34-28.32,16.87-12.58.87,8.95-8.13,10.23-10.12,12.58ZM2461.45,652.5c-3.81-.97-3.95,1.5-4.57,4.59-1.53,7.67-2.64,22.5,8.73,20.72,8.44-1.33,7.79-21.39.92-25.31-3.17,3.49,2.41,12.47-3.39,12.63l-1.69-12.62Z"/>
        <path d="M2447.76,607.33c3.03,4.76-2.45,17.59-8.18,10.71-6.72-8.07,4.71-16.13,8.18-10.71Z"/>
        <path d="M2482.68,605.5c5.22-.87,8.6,11.34,2.98,13.2-10.1,3.36-8.92-12.22-2.98-13.2Z"/>
      </g>
    </g>
  </g>
</svg>