<svg id="Layer_2" data-name="Layer 2" xmlns="http://www.w3.org/2000/svg" viewBox="0 0 1580.22 996.95"><defs><style>.cls-1{fill:#eb102f;}</style></defs><path class="cls-1" d="M1219.21,421.72V306.9h-153.7V421.72H783.38A147.53,147.53,0,0,0,635.85,569.24v190L465.49,538.51,679.16,306.9H508.53L306.68,523.64V308H184.26A30.92,30.92,0,0,0,153.34,339V812.69a30.93,30.93,0,0,0,30.92,30.92H306.68V706.7l57.89-61.8L521,843.61H789.56V601.91A26.49,26.49,0,0,1,816,575.42h249.47v88a26.51,26.51,0,0,1-26.5,26.5h-134V843.6h166.64a147.51,147.51,0,0,0,147.52-147.52V575.42h87.09V421.72Z"/><path class="cls-1" d="M1288.61,244.68h-24.53V230.23h66.82v14.45h-24.54V306.9h-17.75Z"/><path class="cls-1" d="M1410.23,306.9l-.11-46-22.57,37.89h-8l-22.45-36.91v45h-16.65V230.23h14.68l28.7,47.64,28.25-47.64h14.57l.22,76.67Z"/><path class="cls-1" d="M979.46,228.27l-61.78-62.13c-31.66-31.88-77.89-30-107.75-.3s-32,75.87-.3,107.7l61.78,62.17a31.76,31.76,0,0,0,22.45,9.35l86.55.17a7.93,7.93,0,0,0,7.93-7.88l.34-86.6A31.67,31.67,0,0,0,979.46,228.27Z"/></svg>