<?xml version="1.0" encoding="UTF-8"?>
<svg id="Layer_2" data-name="Layer 2" xmlns="http://www.w3.org/2000/svg" viewBox="0 0 246.81 737.23">
  <defs>
    <style>
      .cls-1 {
        fill: #fff;
      }
    </style>
  </defs>
  <g id="Layer_2-2" data-name="Layer 2">
    <g>
      <path d="M132.52,20.42c1.9,2.35.61,5.72,1.8,7.71.5.84,5.15,4.45,6.91,7.09,6.57,9.83,7.64,25.81,4.06,36.89-.81,2.49-3.23,5.14-3.46,7.62-.54,5.78,3.06,12.86-.24,19.68-4.18,8.63-12.52,3.72-16.73,7.27-9,7.57-4.2,33.12.15,42.77l1.46,1.54c4.47-1.86,9.78,4.58,11.85,4.76,1.32.11,3.7-1.6,5.99-1.62,3.87-.05,11.22,3.3,14,6.02,2.33,2.28,2.76,5.49,4.08,6.96.41.46,8.58,7.78,9.12,8.1,2.31,1.36,5.72.63,8.36,1.39,10.06,2.88,29.81,11.74,36.3,19.81,11.94,14.84,9.68,32.88,11.67,50.23,2.97,25.9,6.24,50.45,13.47,75.53,2.34,8.13,10.76,18.97.67,25.63-4.41,2.91-9.12,1.53-10.95,2.56-.4.22-1.08,2.44-2.13,3.34-7.05,6.04-15.92,8.9-24.17,13.86-1.68,1.01-4.18.65-5.89,2.11-.4.34-4.67,8.67-4.82,9.25-1.69,6.72,9.69,20.58,5.88,25.59-.71.93-2.58.68-3.56,1.63-3.55,3.49-.37,10.58-.44,14.51-.28,16.14-2.67,32.8-3.12,48.96-.49,17.21,1.64,38.53.08,54.99-.89,9.39-7.47,8.43-14.07,12.13,4.25,14.84,3.79,30.61,5.04,45.92,1.29,15.73,1.49,32.91,3,48,.42,4.16,3.55,10.13,3.55,13.01,0,2.55-2.46,6.74-2.59,10.05-.15,3.96,1.88,5.73,1.93,7.93.07,2.74-2.66,5.06-2.97,8.01-.36,3.43,1.12,7.22,1.13,11.02.05,14.24-12.21,40.07-24.15,47.92-13.66,8.97-32.76,12.4-47.23,3.4-21.42-13.32,2.77-29.2,10.95-41.69,1.77-2.7,13.03-22.28,13.01-23.63-.02-1.09-1.49-2.22-1.41-3.82.09-1.78,1.84-3.57,1.73-6.1s-2-4.79-2.03-8.07c-.04-4.38,2.49-7.57,3.02-11.06,3.17-20.82-2.53-42.92-4.2-63.69l-7.87-35.63-12.87-1.13c.54,19.34-1.2,39.04,1.26,58.25,1.05,8.18,6.99,25.15,5.52,32.03-.44,2.07-2.85,4.46-2.8,6.28.06,2.15,3.57,1.76,3.66,6.07.08,3.52-2.18,5.38-2.43,7.07-.07.46,2.5,6.16,2.78,8.81,2.18,20.67-4.52,17.06-18.29,25.68-7.19,4.5-14.97,12.47-22.45,15.55-11.41,4.68-31.24,5.26-42.5.03-4.79-2.23-9.7-9.79-8.51-14.97,1.96-8.53,13.46-11,19.67-16.39,5.18-4.49,12.42-17.18,16.17-19.83,1.6-1.13,5.62-1.4,5.84-1.67.24-.29.75-7,.68-7.46-.16-1.15-2.26-2.3-2.84-3.7-2.2-5.39,2.82-20.02,3.29-27.21,1.7-26.22-1.93-54.12-7.51-79.57-1.42-1.9-19.09-.97-23.49-5.51-4.17-11.26.03-24.52-1.05-36.95-1.21-13.95-5.61-29.45-6.97-44.03-.75-8.03.4-20.53-1.03-27.97-1.08-5.58-4.92-4.64-3.86-15.9,1.24-13.13,4.66-17.93,2.8-33.04-1.8-14.69-2.01-30.46-3.87-44.13-.46-3.34-2.74-6.64-3.03-10.97-.34-5.14,1.28-9.44.99-14.49C12.52,295.16-.31,278.98,0,263.62c.44-21.55,33.71-59.33,40.59-84.2.65-2.36-.33-4.92.73-7.27s10.69-10.64,13.23-11.77c4.48-2,6.29-.27,9.39-.78,2.45-.41,5.6-3.99,8.87-3.48-.68-3.1-.74-6.85-1.68-9.81-4.8-15.02-15.99-10.74-25.79-19.21-1.62-1.4-3.12-2.87-4.37-4.63-7.98-11.27-10.45-36.28-9.21-49.88.83-9.12,5.37-19.02,4.72-28.83-.25-3.81-3.8-8.19-4.45-11.35-2.52-12.23,2.97-27.2,15.56-31,9.08-2.74,21.58-1.19,30.5,1.94,4.34,1.53,12.79,7.74,15.6,8.24,6.32,1.12,12.77-2.16,20.81,1.36,2.34,1.02,5.56,4.61,7.03,4.99,2.48.64,7.88-1.36,10.98,2.48ZM106.51,26.45C91.66,13.89,72.09,2.18,51.55,5.38c-17.34,2.7-19.85,22.97-11.72,35.76,4.78-2.66,7.93-7.03,12.68-9.8,28.21-16.44,66.34,10.36,80.12,35.48,2.03,3.69,2.36,8.46,5.69,11.31,7.07-10.37,6.32-29.97-.65-40.35-1.59-2.37-5.42-4.83-6.31-6.69-1.11-2.33-.83-6.31-2.71-8.78-1.84-1.12-5.54.58-7.36.36-2.4-.3-6.85-5.04-9.45-6.06-3.65-1.44-9.09-1.5-13.02-1.47,4.7,4.81,10.8,8.09,14.83,13.66.4.55,4.78,6.23,1.68,6.31-1.97.05-7.07-7.2-8.81-8.67ZM136.51,99.85c3.55-4.2,4.15-20.16-3.96-18.56-4.84.95-8.16,13.6-14.67,7.28-3.8-8.79-6.76-40.01-12.69-45.31-5.05-4.51-26.04-12.51-32.83-13.17-11.35-1.1-19.96,4.84-27.55,12.55,2.07,1.01,5.29,1.24,4.99,4.48-2.54.86-8.23,1.67-9.48,4.03-.79,1.5-4.25,19.72-4.5,22.5-1.27,14.07,2.05,41.8,13.96,51.01,4.92,3.8,11.3,4.15,16.36,7.64,4.64,3.2,7.86,9.34,9.22,14.78,2.9,11.55-3.43,24.57,12.91,25.11,11.53.38,20.7-7.29,28.01-15.08,1.13-1.21,3.52-2.13,4.06-2.98,1.88-2.99-3.24-12.29-4.08-15.94-2.23-9.75-2-22.2,3-31.1,4.98-8.86,12.93-2.12,17.25-7.24ZM128.74,175.06c-1.05-7.99,3.61-9.66,5.93-16.29-4.15-4.13-7.55-5.27-12.36-1.63-4.02,3.05-11.07,12.52-14.52,14.47-1.64.93-4.39.08-5.5,1.5l1.48,6.42-2.46,1.66-3.05-1.01-.45-5.06-7.99,1.01v5c-6.17,1.51-4.08-4.07-5.99-5.52-1.67-1.27-6.67-1.68-9.44-4.56-3.55-3.7-1.42-12.31-8.59-7.39,4.72,5.76.03,7.31-.82,11.2-1.47,6.67,7.8,10.3,12.33,13.26l3.09-4.92,3.25,1.11.59,4.89,7.57.93c-.24-2.94-.1-5.23,2.5-6.98l4.14,6.06c5.14-.17,8-1.66,8.37-7.08,2.65,2.89,5.27,3.06,8.98,3.49-3.58,3.97-9.09,5.08-13.99,6.52-.16,2.73,2.89,2.16,2.76,5.69s-4.31,4.29-5.62.58l1.86-5.28-11,1c1.55,2.93,1.75,6.31-2.49,5.98l-2.44-6.56c-5.25.13-9.27-2.85-14.03-3.98-2.33-.56-5.29,1.39-8.03-1.45.85,6.89-1.73,13.7-1.06,20.56,1.06,10.82,1.54,10.73.39,22.09-.38,3.73,1.38,7.11,1.59,10.73-.78,2.25-3.69,1.08-4.74,1.81-.65.45-.55,2.28-1.15,3.14-.67.95-1.98.61-2.04.7-.19.29,2.87,3.06,2.06,6.34-.34,1.37-4.92-.17-5.11,7.18-.05,2.01,1.26,4.36.91,5.78-.48,1.95-3.28,2.01-4.19,3.94-1.01,2.14-7.46,22.78-6.68,23.74l3.53-.04.46,6.04c-3.61,1.03-3.57-2.8-5.98-3.99-.82,7.67-6.28,14.09-5,22,4.38-3.05,6.98,4.98,3.37,5.95l-3.37-.96.99,28c8.43-1.26,10.02,7.62,1.92,9.59,1.38,4.29.35,10.02,1.09,13.89.51,2.65,4.92,4.28,2.06,7.91-.76.97-2.5.15-3.1,1.26-1.48,2.7-3.51,18.88-1.85,21.74,3.5,6.03,9.7,2,13.2,2.58.46.08,2.52,3.53,8.21,3.13,3.83-.27,3.17-2.99,3.98-3.14,3.42-.63,2.78,2.72,4.2,3.05,2.06.48,5.29-.27,7.69.77l4.11-3.83c2.17.33,4.71,7.08,9.57,3.59,1.17-.84,2.06-9.41,6.53.52l5.4-.06-.02-3.33c.27-2.12,6.09-.36,5.15,3.18l7.25.03,1.76-3.72c5.33-1.56,3.07,1.92,4.44,2.93,5.22,3.86,10.93-2.12,12.91-2.09s4.65,2.8,10.06,2.05c4.21-.58,6-.63,9.9-1s27.41-3.6,28.55-5.06l-1-5.98,4.06.43.94,4.58c7.78-.87,12.42-2.12,8.98-11.01l-5.89.92c-2.02-4.24-1.36-7.88,3.91-7.93-4.32-6.15,2.23-10.99,3.02-17.45,1-8.2-2.58-8.66-3.07-12.08-.38-2.67,1.56-4.26,1.42-7.26-.16-3.38-4.57-15.52-8.02-16.09l-5.37,2.43-2.84-3.19,1.43-4.37-8.61-6.54-6.95,1.56,1-7.99c-11.63.38-5.81-4.07-7.46-7.96-1.01-2.39-6.15-4.27-7.03-6.05-5.38-10.86-13.03-21.99-18.28-32.68-1.27-2.57-1.1-6.84-3.35-9.68-1.65-2.09-4.22-2.12-4.96-3.29-1.4-2.2-.32-5.73-1.13-7.14-.28-.48-2.1-.75-2.79-1.65-5.53-7.14.28-13.19-2.27-19.79-1.21-3.15-6.22-6.04-1.07-9.67,12.17,3,2.82-5.86,3.55-9.46.25-1.25,2.73-2.64,3.35-4.58s4.41-19.21,4.42-20.7c.01-2.6-2.78-4.37-1.98-7.36l4.93-.08ZM164.81,173.15c-1.38-1.47-6.17-1.06-7.97.52-1.1.96-4.48,9.51-5.31,11.68-2.51,6.51-4.24,13.45-5.72,20.28,7.55-2.73,8.17,9.62,1.59,7.43-1.79-.6-.76-3.88-3.58-2.92l-.87,7.83c6.6,3.05,10.7,8.92,15.37,14.17-.2-3.38.46-5.25,4.49-4.99l-.1,5.94c-5.9-1.1.21,6.26,1.28,9.38,1.91,5.54,3.42,12.97-.32,18.03-1.14,1.55-3.39,2.16-4.15,3.9-.83,1.9,2.3,9.15-5.05,6.6-1.95-.68-2.43-5.8-5.66-3.35-.18,5.34,5.72,12.19,11.39,10.42,1.71-.53,1.02-3.77,3.1-2.92,3.66,1.49-.17,4.67-.35,5.7-.06.36,2.78,5.02,3.04,5.17,1.21.69,2.53-1.48,4.88.54s.18,3.52,2.53,5.45c6.85,5.63,20.94,6.26,26.9-.95,1.29-1.55.62-3.05,1.14-3.94,1.86-3.17,4.87-2.08,5.97-7.97,1.65-8.78,1.15-15.03-1.07-24.05-1.38-5.63-4.58-8.93-5.12-10.86-.86-3.07.05-6.5-1.3-9.52-6.72-.32-3.46-3.61-4.1-9.1-.25-2.1-.77-4.66-3.01-5.47-.92,8.21-7.61,2.6-4.8-2.79l3.78-.21-3.98-8-1.03,3.99-3.03-.44-.95-6.56c8.81.79-.07-3.7,0-7.99-2.12.6-.18,4.2-3.01,5.55-1.31.62-2.65-.24-3.84-.71l-.15-7.85c.63-.6,4.77,1.32,3.98-1.46l-4.48-6.53-2.98,4.93c-4.63-1.67-4.77-7.14.48-7.95v-1.47c-2.42-.6-4.58-6.46-5.99-3.81-.69,1.3-1.9,6.16-4.53,2.33-.73-1.06-.76-3.22-.36-4.43.43-1.31,4.6-1.76,2.88-3.59ZM9.81,247.14c.93-2.02,7.49-1.3,7.04,3.45-.62,6.5-9.63,2.21-7.04-3.45-.88,2.1-5.57,11.28-3.94,12.97.21.22,4.1-.88,3.93,3.59-.1,2.58-3.6,2.1-4.04,4.96-.97,6.2,8.83,19.93,16.06,19.47-1.18-2.35-2.07-5.48,1.49-5.99,2.79,1.98,3.16,3.98,1.51,6.99l5.51-.98c.09-4.21,6.92-18.09,5.29-20.82-.47-.78-4.77-1.32-3.8-4.67,1.06-3.62,6.58,1.55,6.97-3.02-1.89-2.16-4.69-1.33-7.27-2.51-.36-.16-5.41-5.26-5.53-5.64-1.78-5.54,1.4-14,.94-18.86-.19-1.97-4.95-2.97-3.11-7.49l6.84,1.81,2.24-5.23-3.01-2.18c-.83-1.63,1.09-5.71,2.92-4.91l2.99,5.51c-.64-1.46,11.78-10.04,7.5-11-2.19-.67-1.06,1.75-2.12,2.02-5.09,1.32-4.73-4.43-3.36-8.01l5.98,2.99-2.01-17.99-16.62,31.86c-6.12,8.55-11.41,17.63-15.37,27.13ZM58.8,219.14c-.04-2.08.73-4.89-1.63-5.86-11.36-3.79-25.33,14.6-26.35,24.38-.55,5.32-.67,14.36,5,16.98s4.33-3.11,6.71-5.55c4.11-4.21,13.61-1.61,12.28-8.94l-10,.99c-1.1-5.89,8.16-3.57,12.33-3.95l1.61-2.56c-.03-.77-4.76-3.17-5.7-3.32-1.6-.25-8.34,2-8.22-.67.17-4.12,11.59-1.48,12.39-1.67,2.65-.63,2.95-5.64-.07-6.67-3.34-1.14-8.55,1.52-11.31-1.66,2.81-3.88,8.99-2.96,12.97-1.5ZM142.47,222.5c-6.73-3.54-25.99-6.2-22.65,6.64.53.6,15.24-8.03,14.97-3.49-.17,2.91-17.94,5.21-14.97,12.49l14.47-5c3.93,4.62-4.19,4.8-6.87,6.12-1.09.54-6.56,3.81-6.59,4.39,4.14,4.07,9.84-1.96,14.98-.49l-.59,3.09c-2.54,1.79-12.68.59-9.94,5.93,2.52,4.91,12.28-.95,15.59,1.42,1.96,4.74,2.56,11.37,9.15,10.28,16.26-2.7,12.76-14.81,6.19-25.63-1.8-2.96-11.12-14.35-13.75-15.73ZM162.15,287.81c-1.66-1.85-2.18-7.27-6.34-5.18,3.01,3.76,5.45,7.91,8.18,11.87,4.17,6.05,9.65,14.69,15.3,19.61.61.54,4.35,3.25,4.51,3.03v-5.01c-6.29,2.2-6.76-5.51-.94-7.64l-.5-3.41c-1.59-2.34-5.02.57-6.55-.38-.86-.53-1.38-2.7-2.47-3.6-3.81-3.18-7.44-5.12-11.19-9.29ZM89.81,459.14l-6.21-41.29-3.78-1.71c-.26,14.41,2.44,28.76,6.91,42.4l3.08.6ZM102.82,460.13c1.31.26,2.35-.43,3.05-1.44,1.56-2.2,3.58-25.08,3.72-29.36.12-3.89-2.5-4.36-4.02-.94-1.67,3.74-.34,9.08-.76,13.24-.63,6.15-2.39,12.24-1.98,18.51ZM119.81,467.13c3.41,2.77,40.72-4.43,46.56-6.93,4.19-1.8,5.35-5.03-.37-4.42s-9.93,3.2-14.8,4.25c-9.34,2.02-21.53,1.89-29.99,5.01-1.38.51-1.71-.36-1.4,2.1ZM83.75,466.21l-30.94-7.07c-.23,1.7-.13,2.23,1.01,3.48,2.13,2.33,28.83,7.72,29.99,6.51l-.06-2.92ZM64.56,474.38c-4.43.79-6.94,4.33-2.27,4.78,1.26.12,15.52-2.46,15.5-3.53-2.79-2.39-9.78-1.87-13.24-1.26ZM160.75,479.22c-7.83-2.29-15.77-3.58-23.93-4.07-.68,3.59,1.91,4.11,4.75,4.74,5.84,1.29,12.73,1.19,18.71,2.27l.47-2.94ZM110.82,525.13l-35.51,1-2.48,1.5c.78.96,1.5,2,1.73,3.25,1.94,10.4,4.43,25.42,5.23,35.77.32,4.14-.98,25.66.97,27.03,3.14.59,6.3,1.51,9.53,1.54,4.53.03,13.54-.54,18.03-1.06,7.92-.91,4.47-3.63,4.43-8.48-.15-17.04,2.2-40.41-1.9-56.11-.35-1.33.06-3.03-.05-4.43ZM134.81,539.14c6.59,28.28,10.79,56.99,12.43,86.06,1.92,2.66,31.5,2.78,34.59.45,1.01-.76,1.05-1.82,1.03-2.96-1.68-22.98-2.42-46.16-5.05-69.05-.58-5.06-2.68-10.09-2.43-15.57-1.43-2.06-17.63.85-21.08,1.05-6.46.38-13.03-.26-19.49.01ZM98.02,649.92c3.52,2.07,20.43-2.98,21.65-7.5,1.04-3.58-2.71-4.19-2.95-7.77-.3-4.41,3.71-6.82,3.08-11.92-.21-1.7-1.53-3.31-1.88-5.19-.59-3.23-2.72-19.76-4.72-20.35l-4.39.96c.84,1.98,1.46,7.61,0,8.98-2.8,2.61-3.34-8.72-4.57-9.06-8.26-1.25-3.16,5.71-7.92,9.04-2.52-1.96-1.28-5.3-1.5-7.98-10-2.08-4.32,5.71-10.49,8.01l-.98-8.05-3.44.14c2.42,8.43-4.79,22.42-4.09,29.38.3,2.98,7.19,5.73,3,11.5,7.41-.71,11.27,1.39,16.54,5.97,1.21,1.05,2.35,3.64,2.66,3.82ZM151.78,631.2l-4.96-1.07c.75,5.15-3.89,13.3-3.88,17.51,0,2,1.67,4.42,1.9,7,.21,2.37-1.07,7.66-.54,8.5,1.53,2.42,3.69-.85,5.51-1.52,8.69-3.17,16.39-2.46,20.67,6.56,4.48.2,10.84.31,14.06-3.34,1.51-1.71-1.13-8.15-.72-12.22.29-2.88,2.03-5.41,2.03-7.99,0-3.88-3.55-9.07-3.07-13.45l-5.96-.05-1.5,9.02c-4.73-.13.36-7.7-5.97-8.05-.84-.05-1.69.05-2.52.04.17,2.98-.06,5.98-2.5,7.98l-3.11-8.04-5.29.16c-.69,3.19-.64,7.7-5.09,6.89l.96-7.93ZM93.81,650.13c-3.15-5.58-9.35-6.15-15-4.98l1.68,4.03,13.32.95ZM62.82,665.13c1.7.43,2-.67,3.01-1.48.86-.69,10.14-10.81,10.5-11.5,1.55-2.96-2.63-3.38-4.52-3.01l.99,4.99-4.52-.03-.94,5.09-3.45-.04-1.07,5.98ZM119.81,650.13c-5.27,1.67-9.85,3.53-15.51,3.99-6.32.52-18.01-1.95-22.54-.53-4,1.25-16.55,20.97-19.94,17.54l.99-4.99c-5.78-.97-8.32,4.45-13.06,7.43-1.89,1.19-8.5,2.58-7.93,5.05,1.15,4.99,22.29,4.84,26.39,4.41,16.23-1.72,24.58-8.66,37.9-15.1,4.24-2.05,10.06-3.25,14.58-4.91l-.88-12.89ZM165.8,666.15c-5.61-2.06-11.54-3.65-15.97,1.49l3.29,2.33,12.68-3.82ZM117.81,669.15c-8.52,1.35-15.02,7.38-22.62,10.87-11.58,5.32-27.11,8.13-39.86,7.11-5.73-.46-13.2-1.42-16.01-6.97-5.66,4.73-.44,11.54,5.47,13.51,6.74,2.25,23.25,2.64,30.23,1.17,11.09-2.33,19.38-11.23,28.88-17.12,4.58-2.85,10.78-4.2,13.92-8.57ZM182.81,688.64c.84-4.74-.61-11.49,0-16.5-7.66,1.29-18.01-2.79-24.95.55s-12.66,24.81-17.51,25.51c-.69.1-2.5.3-2.55-.57-.53-4.51,2.58-5.66,4.2-8.8,1.1-2.13,7.61-14.52,7.68-15.37.25-2.95-4.88-3.6-6.87-2.31l3.99,4.98c-2.52.11-3.66.68-4.49-1.99l-3.52,5.49c.02.77,5.55.47,4.01,4.51l-5.98-1.99-3,5.51,4,1.49v3.99s-3.92-.09-3.92-.09l-1.07-2.9c-2.06,3.96-5.26,7.94-8.04,11.47-3.38,4.28-12.13,9.43-4.61,14.12,13.62,8.49,35.59-.5,47.11-9.62,3.47-2.75,14.86-13.74,15.53-17.47ZM156.16,726.51c1.26-.68,2.86-.71,4.01-1.49,6.28-4.26,12.27-11.62,14.63-18.88-12.35,12.29-39.96,24.62-55.74,13.25-1.62-1.16-3.16-1.97-3.27-4.25-7.13,2-.48,11.32,3.66,13.85,10.2,6.23,24.65,3.98,35.12-.56,1.09-.47,1.19-1.71,1.58-1.92Z"/>
      <path class="cls-1" d="M128.74,175.06l-4.93.08c-.8,2.99,2,4.76,1.98,7.36,0,1.49-3.77,18.7-4.42,20.7s-3.1,3.33-3.35,4.58c-.73,3.61,8.62,12.46-3.55,9.46-5.15,3.63-.14,6.52,1.07,9.67,2.54,6.6-3.26,12.65,2.27,19.79.69.89,2.52,1.17,2.79,1.65.81,1.41-.27,4.94,1.13,7.14.74,1.16,3.31,1.2,4.96,3.29,2.25,2.84,2.08,7.11,3.35,9.68,5.26,10.68,12.9,21.82,18.28,32.68.88,1.78,6.02,3.66,7.03,6.05,1.64,3.89-4.17,8.35,7.46,7.96l-1,7.99,6.95-1.56,8.61,6.54-1.43,4.37,2.84,3.19,5.37-2.43c3.45.57,7.86,12.71,8.02,16.09.14,3-1.8,4.59-1.42,7.26.49,3.42,4.06,3.88,3.07,12.08-.79,6.46-7.34,11.3-3.02,17.45-5.27.05-5.93,3.69-3.91,7.93l5.89-.92c3.44,8.89-1.21,10.15-8.98,11.01l-.94-4.58-4.06-.43,1,5.98c-1.15,1.46-24.82,4.7-28.55,5.06s-5.7.42-9.9,1c-5.41.75-8.05-2.02-10.06-2.05s-7.69,5.95-12.91,2.09c-1.37-1.01.89-4.5-4.44-2.93l-1.76,3.72-7.25-.03c.94-3.54-4.88-5.3-5.15-3.18l.02,3.33-5.4.06c-4.47-9.93-5.36-1.35-6.53-.52-4.86,3.49-7.41-3.26-9.57-3.59l-4.11,3.83c-2.39-1.04-5.63-.29-7.69-.77-1.42-.33-.78-3.68-4.2-3.05-.81.15-.15,2.87-3.98,3.14-5.69.4-7.76-3.05-8.21-3.13-3.5-.58-9.7,3.45-13.2-2.58-1.66-2.86.38-19.04,1.85-21.74.6-1.1,2.34-.29,3.1-1.26,2.86-3.63-1.55-5.26-2.06-7.91-.74-3.87.29-9.6-1.09-13.89,8.1-1.97,6.51-10.86-1.92-9.59l-.99-28,3.37.96c3.6-.97,1.01-9-3.37-5.95-1.28-7.91,4.18-14.34,5-22,2.41,1.19,2.37,5.03,5.98,3.99l-.46-6.04-3.53.04c-.78-.96,5.67-21.6,6.68-23.74.91-1.93,3.7-1.99,4.19-3.94.35-1.41-.96-3.77-.91-5.78.19-7.35,4.77-5.81,5.11-7.18.81-3.28-2.25-6.06-2.06-6.34.06-.09,1.37.26,2.04-.7.6-.86.5-2.69,1.15-3.14,1.05-.73,3.97.44,4.74-1.81-.22-3.63-1.97-7-1.59-10.73,1.14-11.36.66-11.27-.39-22.09-.67-6.86,1.91-13.67,1.06-20.56,2.74,2.84,5.7.89,8.03,1.45,4.76,1.14,8.78,4.11,14.03,3.98l2.44,6.56c4.24.33,4.05-3.05,2.49-5.98l11-1-1.86,5.28c1.31,3.71,5.48,3.08,5.62-.58s-2.92-2.96-2.76-5.69c4.9-1.43,10.41-2.55,13.99-6.52-3.72-.43-6.33-.6-8.98-3.49-.37,5.43-3.24,6.92-8.37,7.08l-4.14-6.06c-2.6,1.74-2.75,4.04-2.5,6.98l-7.57-.93-.59-4.89-3.25-1.11-3.09,4.92c-4.53-2.96-13.8-6.59-12.33-13.26.85-3.88,5.55-5.43.82-11.2,7.16-4.91,5.03,3.69,8.59,7.39,2.77,2.88,7.77,3.29,9.44,4.56,1.91,1.45-.18,7.03,5.98,5.52v-5s8-1.01,8-1.01l.45,5.06,3.05,1.01,2.46-1.66-1.48-6.42c1.11-1.43,3.86-.58,5.5-1.5,3.45-1.95,10.5-11.42,14.52-14.47,4.81-3.64,8.2-2.5,12.36,1.63-2.31,6.63-6.97,8.3-5.93,16.29ZM117.06,171.88c.36.41,1.2.48,1.72.79l1.95-1.13-1.42-5.39c-3.9-.61-4.3,3.39-2.25,5.74ZM75.79,173.15c-3.62-2.56-6.23,6.17-1.47,7.98,3.42.36,2.27-7.41,1.47-7.98ZM119.33,183.14c-3.4,1.97-2.83,5.85.97,6.99,2.63-1.36,1.92-7.62-.97-6.99ZM74.33,193.14c-2.86,1.83-1.93,8.17,1.98,6.99,3.29-1.71.69-7.5-1.98-6.99ZM113.32,194.14c-3.29,1.71-.95,8.66,1.97,7.99,3.03-2.69,2.91-8.16-1.97-7.99ZM70.57,203.38c-7.49-3.65-7.6,9.33.15,7.66l-.15-7.66ZM84.55,204.39c-.55-.57-3.24-1.59-3.73-1.26-1.01,3.1-2.23,7.37,1.65,8.86s4.09-5.53,2.08-7.6ZM97.78,212.12c2.46-9.53-6.57-11.73-4.54-.91l4.54.91ZM110.81,212.14c.29-3.37.4-7.83-3.98-8-.84,2.63-1.44,4.77-.11,7.41l4.09.59ZM76.65,216.29l-3.83-.16c-2.13,9.42,7.36,8.28,3.83.16ZM86.89,217.23c-.57,2.83,0,6.36,3.29,6.84l2.25-3.95-2.59-3.53-2.95.64ZM103.71,216.24c-4.41-2.96-7.77,6.09-3.29,8.79,5.71,2.17,4.69-7.85,3.29-8.79ZM70.57,226.4c-.41-.52-1.61-.68-2.28-1.01-3.84,2.06-2.78,6.18.03,8.75,3.48-.32,3.86-5.69,2.25-7.74ZM97.81,234.13c1.19-7.82-6.7-10.09-4.56-.93l4.56.93ZM111.67,234.99c1.65-2.74,1.3-7.04-2.34-7.85-2.55,2.2-3,4.92-1.37,7.85h3.71ZM79.68,244c1.59-2.54-1.16-7.97-4.85-6.85-3.25,2.95,2.14,11.2,4.85,6.85ZM90.56,238.39c-.48-.52-1.55-.75-2.26-.99-5.94,2.45.19,10.39,2.56,7.14.86-1.9,1.26-4.48-.3-6.15ZM67.91,248.24l-.61,6.89c2.08,3.1,5.85,2.6,7.41-.7.32-2.89-3.93-8.12-6.8-6.2ZM98.31,248.16l-3.15,4.47c.33,1.54,1.26,3.55,3.14,3.56l3.36-3.38-3.35-4.65ZM64.61,262.37c-.86-.5-1.88-.17-2.8-.24l1.51,7c4.12-.19,3.61-5.41,1.29-6.76ZM91.32,262.14c-3.2,1.82-1.11,8.45,1.86,7.93l2.49-4.2c-.71-2.12-1.66-4.2-4.35-3.73ZM107.8,262.14c-4.08-2.86-5.74,7.16-1.47,7.99,3.69.72,2.34-7.38,1.47-7.99ZM117.32,262.14c-3.24,1.49-.55,8.6,1.98,7.99,3.18-.77,2.95-8.93-1.98-7.99ZM61.65,273.3l-3.84-1.16c-.88,2.43-.64,4.44.11,6.88l3.88.13-.15-5.85ZM75.81,279.13c.42-3.6-.38-8.17-4.91-5.9l.36,4.96,4.55.93ZM126.33,273.14l-1.38,5.35c4.89,5.26,7.02-3.68,1.38-5.35ZM52.31,283.16c-7.36,6.06,3.27,10.21,2.53,3.53-.18-1.64-1.44-2.54-2.53-3.53ZM65.82,284.14c-1.53,1.17-1.14,7.11,2.35,6.92l2.55-3.28c-.59-1.01-3.68-4.58-4.91-3.63ZM81.32,284.15c-2.48.77-2.88,9.76,2.89,7.9,3.16-1.02.77-9.04-2.89-7.9ZM108.8,284.14c-5.37.08-4.34,9.68.05,6.54l.88-1.19-.93-5.35ZM97.79,285.14l-3.03.44c-3.07,2.27.34,10.13,3.97,4.9l-.93-5.34ZM123.72,291.04c.59-3.2.22-6.68-3.9-5.9-1.35,3.11-.69,8.3,3.9,5.9ZM137.71,286.25c-4.27-2.2-5.99,1.97-3.74,5.73l3.83.16-.09-5.89ZM59.07,300.87c4.07,4.16,6.65-3.31,3.81-5.3-3.99-2.78-6.32,2.73-3.81,5.3ZM104.81,302.13c.42-3.6-.38-8.17-4.91-5.9l.36,4.96,4.55.93ZM130.78,304.12l1.93-5.27c-5.65-9.3-11.53,4.09-1.93,5.27ZM74.06,301.88c3.53,3.82,6.72-4.25,2.15-5.65-3.58-1.1-4.23,3.4-2.15,5.65ZM92.81,296.13l-3.85.14c-1.06,1.93-1.05,3.8,0,5.73l3.85.14v-6.01ZM116.79,296.15c-3.24-2.21-5.95,4.95-2.47,5.98,4.34,1.29,3.59-5.22,2.47-5.98ZM74.91,314.04c4.35,3,7.98-6.23,1.38-7.84-2.33,1.05-3.02,6.71-1.38,7.84ZM43.33,307.14c-2.86,1.83-1.93,8.17,1.98,6.99,3.29-1.71.69-7.5-1.98-6.99ZM66.66,314c1.82-1.82.27-7.41-2.33-6.85-2.3,1.69-1.44,4.64-1.51,7l3.84-.15ZM89.79,307.14c-1.54-.33-2.06.55-3.02,1.45-7.5,7.1,9.87,11.89,3.02-1.45ZM97.83,314.13l3.03-.44c3.07-2.27-.34-10.13-3.97-4.9l.93,5.34ZM109.06,313.86c4.29,5.15,6.9-5.59,3.24-6.72s-5.1,4.48-3.24,6.72ZM124.81,307.14c-10.74-.8-1.38,11.84,0,4.49.26-1.4-.07-3.04,0-4.49ZM132.32,307.15c-3.1.98-1.29,8.6,1.98,7.99,2.37-.45,2.63-9.44-1.98-7.99ZM144.32,307.15c-2.59.8-2.27,8.29,1.98,6.98,2.59-.8,2.27-8.29-1.98-6.98ZM57.67,309.28c-.28-.45-4.32-1.5-4.83-1.13-3.3,10.38,8.62,7.18,4.83,1.13ZM153.56,318.39c-1.94-2.09-4.51-.2-4.79,2.3-.8,7.04,10,3.32,4.79-2.3ZM107.79,318.15c-3.24-2.21-5.95,4.95-2.47,5.98,4.34,1.29,3.59-5.22,2.47-5.98ZM127.42,318.22c-3.45,1.12-1.19,7.8,2.69,6.81,4.58-1.17,2.03-8.34-2.69-6.81ZM39.96,329.3c-1.28,3.32.29,10.69,4.92,7.41,2.71-1.92.04-11.41-4.92-7.41ZM53.73,336.06c1.59-1.1.66-9.21-3.41-7.92-2.09.66-2.42,7.08.12,7.87.93.08,2.66.48,3.3.04ZM62.74,336.08c3.42-9.02-6.76-11.47-3.01-.53l3.01.53ZM170.79,328.15c-3.97-2.68-6.97,6.97-2.45,7.98,3.54.8,4.14-6.85,2.45-7.98ZM71.8,329.14c-5.24-.61-5.16,4.49-1.47,6.99,2.75,1.05,2.44-5.69,1.47-6.99ZM85.67,336.99c.86-4.04-.05-8.34-4.84-7.84-1.04,3.36-2.27,6.99,1.63,8.79l3.21-.95ZM117.71,337.04c2.01-1.38.76-9.02-3.39-7.89-2.09.65-2.42,7.09.11,7.88.95.09,2.58.49,3.27.01ZM140.8,336.13c3.1-6.03-3.74-10.43-4.88-2.69l4.88,2.69ZM146.91,337.04c.94.66,4.32.25,4.79-1.54-.29-13.39-9.06-1.47-4.79,1.54ZM161.67,329.28h-3.71c-1.64,2.93-1.18,5.65,1.37,7.85,3.64-.81,3.99-5.11,2.34-7.85ZM95.29,330.37c-3.87,2.38-3.54,7.4,1.04,8.54,3.87-2.38,3.54-7.4-1.04-8.54ZM106.81,330.14c-4.59-.99-5.38,4.64-2.48,6.99,3,.63,2.67-5.19,2.48-6.99ZM127.66,336.98l1.06-4.19-3.42-2.6c-2.55,1.84-2.11,4.17-1.4,6.85l3.76-.06ZM111.72,341.23c-1.84-2.94-8.31,2.57-2.4,5.9,2.55.53,3.18-4.65,2.4-5.9ZM123.68,341.27c-1.16-1.83-7.4-2.51-6.88,3.34.63,7.12,10.05,1.67,6.88-3.34ZM144.71,346.04c1.49-.89.22-6.47-2.37-5.89-4.03.91-2.14,8.56,2.37,5.89ZM156.81,347.14l-.46-6.04-4.39.19.3,4.91,4.55.94ZM61.82,348.13c7.23.14,5.68-7.97-1.01-6.99l1.01,6.99ZM80.9,347.04c1.84,2.94,8.31-2.57,2.4-5.9-2.55-.53-3.18,4.65-2.4,5.9ZM93.82,342.14c-1.78,8.85,6.67,9.89,4.56.93l-4.56-.93ZM56.57,351.38c-3.5-3.85-8.94,5.75-3.1,8.65l4.39-1.57-1.29-7.08ZM70.56,352.41c-4.47-5.4-9.83,8.69.25,7.73.25-2.2,1.29-5.87-.25-7.73ZM81.83,351.14c-1.39,3.28-2.35,10.82,3.38,8.91,3.48-1.16,1.3-10.36-3.38-8.91ZM96.34,351.15c-4.5,2.06-2.77,11.37,1.93,9.98,3.18-.94,1.29-10.66-1.93-9.98ZM108.32,351.14c-2.09.64-2.16,7.44-.59,8.57,7.93,3.35,5.5-10.07.59-8.57ZM121.83,351.14c-1.24,3.8-2.58,8.88,3.37,7.91,3.52-1.16.93-9.27-3.37-7.91ZM140.56,359.91c2.51-3.62,1-7.43-3.13-8.71-3.61,1.89-4.06,8.39.29,9.47l2.84-.75ZM152.31,351.19c-4.17,2.67-5.48,8.25,0,9.97,5.48-1.73,4.17-7.3,0-9.97ZM168.75,360.08c1.38-3.78.72-8.33-3.93-8.94-.65,2.44-2.43,7.83.61,8.88l3.33.06ZM177.91,360.04c7.22,1.68,7.62-4.79,3.32-8.83l-2.89.95c-1.6,2.63-1.21,5.08-.43,7.88ZM58.9,364.23c-.5,2.59-.43,6.54,3.4,5.9,3.11-.88.67-9.05-3.4-5.9ZM73.03,364.39c-3.31,4.15,3.84,11.41,5.63,5.03,1-3.57-3.51-7.69-5.63-5.03ZM156.05,371.87c6.28,3.66,7.62-5.1,3.25-8.73-2.82-.67-5.24,6.39-3.25,8.73ZM171.07,364.4c-5.02,5.2,6.67,14.19,4.58.39l-2.19-1.52c-.76.34-1.83.55-2.39,1.13ZM190.55,364.41c-3.76-4.51-8.5,4.68-3.14,7.66l2.91-.93c1.48-1.5,1.48-5.22.23-6.73ZM49.71,364.24l-3.97.33c-2.06,3.23-1.46,7.4,2.59,8.34,3.57-1.87,2.67-5.62,1.38-8.67ZM92.79,372.13c1.65-2.33.97-8.64-2.47-7.99-2.48.47-2.65,9.79,2.47,7.99ZM101.87,372.09c4.13,3.64,7.52-6.83,2.41-7.94-3.24-.7-3.71,6.79-2.41,7.94ZM117.72,364.23l-3.28-.13c-4.97,8.09,6.24,9.94,3.28.13ZM128.84,364.16c-2.85,11.66,9.38,9.55,3.35.09l-3.35-.09ZM141.91,364.24c-4.27,3.01,4.5,14.93,4.79,1.54-.46-1.79-3.85-2.2-4.79-1.54ZM124.78,382.12c2.85-11.66-9.38-9.55-3.35-.09l3.35.09ZM66.91,383.03c4.65,2.9,7.84-6.47,1.38-7.66-3.04.61-2.79,6.78-1.38,7.66ZM135.35,375.15c-3.22,1.93-1.39,9.46,1.84,8.93,3.88-.64,3.67-9.75-1.84-8.93ZM54.42,376.23c-3.54,1.18-1.29,9.11,2.86,7.9,2.54-.75,2.87-9.8-2.86-7.9ZM84.71,376.24c-3.11-2.15-6.62,2.1-3.98,6.23l2.59,1.4c3.02-.43,2.82-6.64,1.39-7.63ZM109.33,376.14c-3.91,2.11-2.36,10.23,1.88,8.93,3.74-1.15,1.95-8.67-1.88-8.93ZM168.67,382.99l-.33-5.88c-1.87-2.85-7.12.72-5.04,5.02l2.17,1.81,3.21-.95ZM178.91,376.24c-1.99,2.68-.43,8.98,3.29,7.83,4.08-2.9,1.99-9.3-3.29-7.83ZM94.83,383.13c3.24,2.21,5.95-4.95,2.47-5.98-4.34-1.29-3.59,5.22-2.47,5.98ZM44.84,385.15c-1.65,1.42,0,11.14,5.04,7.55,3.78-3.5-2.34-9.88-5.04-7.55ZM79.81,393.14c.05-3.06.97-7.51-3.49-6.99-2.44,1.68-1.43,4.13-.61,6.4l4.09.59ZM103.8,387.14l-3.04.44-.98,5.88c5.67,4.37,5.83-1.92,4.02-6.32ZM117.79,387.14l-3.03.44c-3.07,2.27.34,10.13,3.97,4.9l-.93-5.34ZM142.82,394.14c4.92.91,6.51-2.62,4.05-6.56l-4.05-.44v7.01ZM160.75,387.2c-5.63-.9-5.75,2.51-3.84,6.83l4.48-.85-.64-5.98ZM174.8,387.14c-7.25.06-5.58,9.38,1.01,8l-1.01-8ZM39.35,396.15c-2.64.77-2.6,8.68,2.85,6.9,3.62-1.18.89-7.99-2.85-6.9ZM57.51,397.46c-3.57-3.14-5.66,2.74-3.77,5.99l2.73,1.55c4.08-1.01,3.56-5.31,1.04-7.53ZM72.68,404c.99-2.16-.6-7.25-3.24-6.79l-2.48,2.65,2.48,5.16,3.24-1.01ZM86.81,404.13c1.19-7.82-6.7-10.09-4.56-.93l4.56.93ZM95.32,397.15c-3.29,1.71-.69,7.5,1.98,6.99,2.86-1.83,1.93-8.17-1.98-6.99ZM121.35,397.15c-5.23,6.01,5.55,13.11,4.28,2.7l-4.28-2.7ZM134.82,404.14c10.74.8,1.38-11.84,0-4.49-.26,1.4.07,3.04,0,4.49ZM155.57,399.4c-3.48-4.08-8.82,3.65-3.77,6.27,4.04,2.09,5.71-3.99,3.77-6.27ZM165.32,398.14c-3.2,1.82-1.11,8.45,1.86,7.93l2.49-4.2c-.71-2.12-1.66-4.2-4.35-3.73Z"/>
      <path class="cls-1" d="M136.51,99.85c-4.33,5.12-12.28-1.63-17.25,7.24-5,8.9-5.23,21.35-3,31.1.84,3.65,5.96,12.95,4.08,15.94-.54.85-2.92,1.77-4.06,2.98-7.3,7.79-16.47,15.46-28.01,15.08-16.34-.54-10.01-13.56-12.91-25.11-1.37-5.44-4.59-11.58-9.22-14.78-5.06-3.49-11.44-3.84-16.36-7.64-11.91-9.2-15.24-36.93-13.96-51.01.25-2.78,3.71-21,4.5-22.5,1.25-2.36,6.94-3.17,9.48-4.03.29-3.24-2.92-3.47-4.99-4.48,7.59-7.71,16.21-13.65,27.55-12.55,6.79.66,27.78,8.65,32.83,13.17,5.93,5.3,8.88,36.52,12.69,45.31,6.51,6.32,9.83-6.32,14.67-7.28,8.11-1.6,7.51,14.36,3.96,18.56ZM87.5,44.44c-3.68-4.08-10.19-4.28-13.67.2l14.43,6.49,1.4-2.3c-.76-1.31-1.19-3.31-2.15-4.38ZM48.67,55.29l-2.54-.94c-6.79,1.84-5.07,10.96,1.69,7.33l.85-6.38ZM76.92,61.04c4.57,2.44,9.24.47,7.46-4.96-2.05-2.92-9.56.67-7.46,4.96ZM54.81,60.14c-1.52-1.55-8.81,8.24-7.99,8.99,3.64,1.7,8.89-8.07,7.99-8.99ZM75.81,96.13c2.86-3.35-11.48-7.39-13.74-7.75-3.26-.52-11.85-1.29-13.25,2.28-.42,2.25.98,1.39,2.47,1.49,2.97.2,5.43-.07,8.57.45,5.75.94,10.25,5.08,15.95,3.54Z"/>
      <path class="cls-1" d="M164.81,173.15c1.71,1.82-2.46,2.27-2.88,3.59-.39,1.21-.36,3.37.36,4.43,2.63,3.83,3.84-1.03,4.53-2.33,1.41-2.65,3.57,3.21,5.99,3.81v1.47c-5.25.81-5.11,6.28-.48,7.95l2.98-4.93,4.48,6.53c.79,2.78-3.35.86-3.98,1.46l.15,7.85c1.19.48,2.54,1.33,3.84.71,2.83-1.35.89-4.95,3.01-5.55-.06,4.29,8.82,8.78,0,7.99l.95,6.56,3.03.44,1.03-3.99,3.98,8-3.78.21c-2.81,5.39,3.88,11,4.8,2.79,2.24.82,2.76,3.37,3.01,5.47.64,5.49-2.61,8.79,4.1,9.1,1.35,3.02.44,6.45,1.3,9.52.54,1.93,3.74,5.23,5.12,10.86,2.22,9.02,2.71,15.27,1.07,24.05-1.1,5.88-4.11,4.79-5.97,7.97-.52.89.15,2.39-1.14,3.94-5.96,7.21-20.06,6.58-26.9.95-2.35-1.93-.07-3.35-2.53-5.45s-3.67.15-4.88-.54c-.26-.15-3.1-4.8-3.04-5.17.18-1.02,4-4.21.35-5.7-2.08-.85-1.39,2.39-3.1,2.92-5.68,1.76-11.57-5.08-11.39-10.42,3.24-2.45,3.71,2.68,5.66,3.35,7.35,2.55,4.22-4.7,5.05-6.6.76-1.74,3.01-2.35,4.15-3.9,3.74-5.06,2.22-12.49.32-18.03-1.07-3.12-7.18-10.48-1.28-9.38l.1-5.94c-4.03-.26-4.69,1.61-4.49,4.99-4.67-5.24-8.77-11.12-15.37-14.17l.87-7.83c2.81-.96,1.79,2.32,3.58,2.92,6.58,2.19,5.96-10.16-1.59-7.43,1.48-6.82,3.22-13.76,5.72-20.28.84-2.17,4.22-10.71,5.31-11.68,1.8-1.58,6.59-1.99,7.97-.52ZM158.33,184.14c-2.62,1.36-1.93,7.61.97,6.99l2.54-3.5-3.51-3.49ZM155.66,201.99c3.59-8.47-7.41-10.05-3.74.04l3.74-.04ZM168.81,202.13c1.19-7.82-6.7-10.09-4.56-.93l4.56.93ZM162.81,212.14l-.46-6.04-4.39.19.3,4.91,4.55.94ZM169.95,211.99c2.68,4.34,7.12-2.74,3.84-6.85-2.96.44-5.47,4.22-3.84,6.85ZM151.82,216.14c-1.46,9.05,6.92,11.55,4.55.94l-4.55-.94ZM168.71,217.26l-2.42-.85c-3.49,1.76-2.47,4.63-1.46,7.72l3.5-.97.38-5.91ZM183.31,226.16c-6.48,4.98,1.49,12.91,3.36,6.26.86-3.04-1.4-4.41-3.36-6.26ZM190.81,239.14c-.41-.3.52-3.08-3.47-3.09-3.32,0-6.86,3.72-10.91,2.95l-1.61,6.12c6.13.49,9.79-6.73,16-5.99-3.03,14.29,9.5,4.75,2.93.52-1.04-.67-2.7-.35-2.93-.52ZM187.81,252.13l6.98-.49c-2.78-3.75-7.77-4.33-12.03-3.03-1.83,1.12.33,9.58,3.56,9.51l1.5-5.98ZM173.33,250.14c-.69.15-2.56,2.41-2.54,3.49l2.53,3.48c3.15-1.18,3.39-7.69.01-6.98ZM167.31,263.16c-3.62,2.41-3.45,6.84.99,7.98,2.88-2.42,1.74-6.09-.99-7.98ZM182.71,271.04c1.15-1.93-.48-8.56-3.37-7.89-6.27,3.95,1.1,11.71,3.37,7.89ZM192.33,263.14c-2.86,1.83-1.93,8.17,1.98,6.99,3.29-1.71.69-7.5-1.98-6.99ZM203.34,263.15l-2.61,4.46,3.59,3.46c3.04-2.23,3.09-6.82-.98-7.92ZM177.67,275.28c-2.69-4.33-7.13,2.73-3.85,6.85,3.23.51,5.13-4.79,3.85-6.85ZM189.66,274.29l-3.94.45c-1.24,2.49-.46,4.66,1.62,6.39,3.74-.79,4.03-3.94,2.32-6.84Z"/>
      <path class="cls-1" d="M134.81,539.14c6.46-.27,13.03.36,19.49-.01,3.45-.2,19.64-3.11,21.08-1.05-.26,5.48,1.85,10.51,2.43,15.57,2.63,22.89,3.38,46.07,5.05,69.05.02,1.15-.01,2.2-1.03,2.96-3.09,2.33-32.67,2.21-34.59-.45-1.64-29.07-5.84-57.78-12.43-86.06Z"/>
      <path class="cls-1" d="M106.51,26.45c1.74,1.47,6.84,8.72,8.81,8.67,3.11-.08-1.28-5.75-1.68-6.31-4.03-5.57-10.13-8.85-14.83-13.66,3.93-.04,9.37.03,13.02,1.47,2.6,1.02,7.05,5.76,9.45,6.06,1.83.23,5.52-1.48,7.36-.36,1.88,2.47,1.6,6.45,2.71,8.78.89,1.87,4.72,4.32,6.31,6.69,6.97,10.37,7.73,29.98.65,40.35-3.33-2.85-3.66-7.62-5.69-11.31-13.78-25.12-51.91-51.92-80.12-35.48-4.75,2.77-7.9,7.14-12.68,9.8-8.13-12.79-5.62-33.06,11.72-35.76,20.54-3.19,40.11,8.51,54.96,21.07Z"/>
      <path class="cls-1" d="M110.82,525.13c.11,1.41-.3,3.11.05,4.43,4.1,15.71,1.75,39.08,1.9,56.11.04,4.84,3.49,7.56-4.43,8.48-4.49.52-13.5,1.09-18.03,1.06-3.23-.02-6.39-.94-9.53-1.54-1.95-1.37-.65-22.88-.97-27.03-.8-10.36-3.29-25.38-5.23-35.77-.23-1.25-.96-2.29-1.73-3.25l2.48-1.5,35.51-1Z"/>
      <path class="cls-1" d="M182.81,688.64c-.66,3.73-12.06,14.72-15.53,17.47-11.52,9.13-33.49,18.12-47.11,9.62-7.52-4.69,1.23-9.84,4.61-14.12,2.78-3.52,5.98-7.51,8.04-11.47l1.07,2.9,3.91.09v-3.99s-3.98-1.49-3.98-1.49l3-5.51,5.98,1.99c1.55-4.04-3.98-3.74-4.01-4.51l3.52-5.49c.83,2.67,1.97,2.1,4.49,1.99l-3.99-4.98c1.99-1.29,7.12-.64,6.87,2.31-.07.86-6.58,13.24-7.68,15.37-1.62,3.14-4.73,4.29-4.2,8.8.05.87,1.87.67,2.55.57,4.85-.7,10.63-22.19,17.51-25.51s17.29.74,24.95-.55c-.61,5.01.84,11.76,0,16.5Z"/>
      <path class="cls-1" d="M98.02,649.92c-.31-.18-1.45-2.77-2.66-3.82-5.28-4.58-9.13-6.68-16.54-5.97,4.19-5.77-2.7-8.52-3-11.5-.69-6.96,6.51-20.95,4.09-29.38l3.44-.14.98,8.05c6.18-2.31.5-10.09,10.49-8.01.22,2.69-1.03,6.02,1.5,7.98,4.75-3.33-.34-10.29,7.92-9.04,1.23.34,1.77,11.67,4.57,9.06,1.47-1.37.85-7,0-8.98l4.39-.96c2,.59,4.13,17.11,4.72,20.35.35,1.88,1.67,3.49,1.88,5.19.63,5.1-3.38,7.51-3.08,11.92.24,3.58,3.99,4.18,2.95,7.77-1.22,4.52-18.13,9.57-21.65,7.5Z"/>
      <path class="cls-1" d="M9.81,247.14c3.96-9.5,9.25-18.59,15.37-27.13l16.62-31.86,2.01,17.99-5.98-2.99c-1.37,3.58-1.73,9.33,3.36,8.01,1.06-.28-.07-2.69,2.12-2.02,4.27.96-8.14,9.54-7.5,11l-2.99-5.51c-1.83-.79-3.76,3.28-2.92,4.91l3.01,2.18-2.24,5.23-6.84-1.81c-1.84,4.52,2.93,5.53,3.11,7.49.46,4.86-2.72,13.32-.94,18.86.12.38,5.17,5.47,5.53,5.64,2.58,1.18,5.38.35,7.27,2.51-.39,4.57-5.92-.6-6.97,3.02-.98,3.35,3.33,3.89,3.8,4.67,1.64,2.73-5.2,16.61-5.29,20.82l-5.51.98c1.65-3.01,1.27-5.01-1.51-6.99-3.55.51-2.66,3.63-1.49,5.99-7.22.46-17.02-13.27-16.06-19.47.45-2.86,3.94-2.38,4.04-4.96.17-4.47-3.72-3.37-3.93-3.59-1.62-1.69,3.07-10.86,3.94-12.97-2.59,5.65,6.43,9.94,7.04,3.45.45-4.75-6.12-5.47-7.04-3.45ZM21.71,235.26l-2.42-.85c-3.49,1.76-2.47,4.63-1.46,7.72l3.5-.97.38-5.91ZM19.83,260.15c-1.11.76-1.87,7.28,2.47,5.98,3.48-1.04.77-8.2-2.47-5.98ZM18.67,271.29c-2.3-3.81-8.41,2.28-2.34,5.85,2.5.49,3.22-4.39,2.34-5.85Z"/>
      <path class="cls-1" d="M119.81,650.13l.88,12.89c-4.52,1.66-10.34,2.86-14.58,4.91-13.32,6.45-21.67,13.39-37.9,15.1-4.1.43-25.25.58-26.39-4.41-.57-2.46,6.04-3.86,7.93-5.05,4.74-2.98,7.28-8.39,13.06-7.43l-.99,4.99c3.39,3.43,15.94-16.3,19.94-17.54,4.53-1.42,16.22,1.05,22.54.53,5.66-.46,10.24-2.32,15.51-3.99Z"/>
      <path class="cls-1" d="M151.78,631.2l-.96,7.93c4.45.81,4.4-3.7,5.09-6.89l5.29-.16,3.11,8.04c2.44-2.01,2.67-5,2.5-7.98.83,0,1.68-.08,2.52-.04,6.33.35,1.24,7.93,5.97,8.05l1.5-9.02,5.96.05c-.48,4.39,3.07,9.57,3.07,13.45,0,2.58-1.74,5.11-2.03,7.99-.41,4.07,2.23,10.5.72,12.22-3.22,3.65-9.57,3.54-14.06,3.34-4.28-9.02-11.97-9.73-20.67-6.56-1.81.66-3.97,3.94-5.51,1.52-.53-.84.74-6.14.54-8.5-.23-2.58-1.89-5-1.9-7,0-4.2,4.63-12.35,3.88-17.51l4.96,1.07Z"/>
      <path class="cls-1" d="M142.47,222.5c2.63,1.38,11.96,12.77,13.75,15.73,6.57,10.81,10.07,22.93-6.19,25.63-6.6,1.09-7.19-5.54-9.15-10.28-3.32-2.37-13.08,3.49-15.59-1.42-2.74-5.35,7.4-4.14,9.94-5.93l.59-3.09c-5.14-1.46-10.84,4.57-14.98.49.03-.58,5.5-3.85,6.59-4.39,2.68-1.32,10.8-1.5,6.87-6.12l-14.47,5c-2.96-7.28,14.81-9.59,14.97-12.49.26-4.54-14.44,4.09-14.97,3.49-3.34-12.84,15.92-10.18,22.65-6.64Z"/>
      <path class="cls-1" d="M58.8,219.14c-3.98-1.46-10.16-2.38-12.97,1.5,2.76,3.18,7.97.52,11.31,1.66,3.03,1.03,2.72,6.04.07,6.67-.8.19-12.21-2.46-12.39,1.67-.11,2.67,6.62.41,8.22.67.94.15,5.67,2.55,5.7,3.32l-1.61,2.56c-4.17.38-13.43-1.94-12.33,3.95l10-.99c1.33,7.33-8.17,4.73-12.28,8.94-2.38,2.44-1.14,8.12-6.71,5.55s-5.55-11.66-5-16.98c1.02-9.78,14.98-28.17,26.35-24.38,2.36.97,1.59,3.79,1.63,5.86Z"/>
      <path class="cls-1" d="M117.81,669.15c-3.14,4.37-9.34,5.72-13.92,8.57-9.49,5.9-17.79,14.8-28.88,17.12-6.98,1.46-23.5,1.08-30.23-1.17-5.9-1.97-11.13-8.78-5.47-13.51,2.82,5.55,10.28,6.5,16.01,6.97,12.76,1.03,28.29-1.79,39.86-7.11,7.6-3.49,14.1-9.52,22.62-10.87Z"/>
      <path class="cls-1" d="M156.16,726.51c-.39.21-.49,1.45-1.58,1.92-10.47,4.55-24.92,6.8-35.12.56-4.14-2.53-10.79-11.85-3.66-13.85.11,2.28,1.65,3.08,3.27,4.25,15.78,11.36,43.39-.96,55.74-13.25-2.36,7.26-8.35,14.61-14.63,18.88-1.15.78-2.75.81-4.01,1.49Z"/>
      <path class="cls-1" d="M119.81,467.13c-.31-2.46.02-1.59,1.4-2.1,8.46-3.12,20.66-2.98,29.99-5.01,4.87-1.05,9.26-3.66,14.8-4.25s4.56,2.62.37,4.42c-5.84,2.5-43.15,9.7-46.56,6.93Z"/>
      <path class="cls-1" d="M162.15,287.81c3.76,4.17,7.38,6.11,11.19,9.29,1.08.91,1.61,3.07,2.47,3.6,1.54.95,4.96-1.96,6.55.38l.5,3.41c-5.82,2.13-5.35,9.84.94,7.64v5.01c-.16.22-3.9-2.49-4.51-3.03-5.64-4.92-11.13-13.56-15.3-19.61-2.73-3.96-5.17-8.11-8.18-11.87,4.16-2.09,4.67,3.33,6.34,5.18Z"/>
      <path class="cls-1" d="M89.81,459.14l-3.08-.6c-4.47-13.64-7.17-27.99-6.91-42.4l3.78,1.71,6.21,41.29Z"/>
      <path class="cls-1" d="M102.82,460.13c-.41-6.26,1.35-12.36,1.98-18.51.43-4.15-.9-9.5.76-13.24,1.53-3.42,4.14-2.95,4.02.94-.13,4.29-2.16,27.16-3.72,29.36-.71,1-1.75,1.7-3.05,1.44Z"/>
      <path class="cls-1" d="M83.75,466.21l.06,2.92c-1.15,1.2-27.86-4.18-29.99-6.51-1.15-1.25-1.24-1.78-1.01-3.48l30.94,7.07Z"/>
      <path class="cls-1" d="M160.75,479.22l-.47,2.94c-5.99-1.08-12.88-.98-18.71-2.27-2.84-.63-5.43-1.14-4.75-4.74,8.16.49,16.1,1.78,23.93,4.07Z"/>
      <path class="cls-1" d="M62.82,665.13l1.07-5.98,3.45.04.94-5.09,4.52.03-.99-4.99c1.88-.37,6.07.05,4.52,3.01-.36.69-9.64,10.81-10.5,11.5-1.01.81-1.32,1.9-3.01,1.48Z"/>
      <path class="cls-1" d="M64.56,474.38c3.46-.62,10.45-1.14,13.24,1.26.02,1.07-14.25,3.65-15.5,3.53-4.68-.46-2.17-3.99,2.27-4.78Z"/>
      <path class="cls-1" d="M93.81,650.13l-13.32-.95-1.68-4.03c5.65-1.17,11.85-.59,15,4.98Z"/>
      <path class="cls-1" d="M165.8,666.15l-12.68,3.82-3.29-2.33c4.43-5.14,10.37-3.54,15.97-1.49Z"/>
      <path d="M67.91,248.24c2.87-1.92,7.12,3.31,6.8,6.2-1.56,3.3-5.33,3.8-7.41.7l.61-6.89Z"/>
      <path d="M56.57,351.38l1.29,7.08-4.39,1.57c-5.84-2.9-.4-12.51,3.1-8.65Z"/>
      <path d="M152.31,351.19c4.17,2.67,5.48,8.25,0,9.97-5.48-1.73-4.17-7.3,0-9.97Z"/>
      <path d="M140.56,359.91l-2.84.75c-4.35-1.08-3.9-7.58-.29-9.47,4.13,1.28,5.64,5.1,3.13,8.71Z"/>
      <path d="M177.91,360.04c-.78-2.79-1.18-5.25.43-7.88l2.89-.95c4.3,4.04,3.9,10.51-3.32,8.83Z"/>
      <path d="M103.71,216.24c1.41.94,2.42,10.96-3.29,8.79-4.49-2.7-1.13-11.75,3.29-8.79Z"/>
      <path d="M156.05,371.87c-1.99-2.34.42-9.4,3.25-8.73,4.38,3.63,3.03,12.39-3.25,8.73Z"/>
      <path d="M96.34,351.15c3.22-.68,5.11,9.03,1.93,9.98-4.7,1.4-6.43-7.92-1.93-9.98Z"/>
      <path d="M108.32,351.14c4.91-1.51,7.35,11.91-.59,8.57-1.57-1.13-1.51-7.92.59-8.57Z"/>
      <path d="M123.68,341.27c3.17,5.01-6.25,10.46-6.88,3.34-.52-5.85,5.72-5.17,6.88-3.34Z"/>
      <path d="M39.96,329.3c4.96-4,7.63,5.49,4.92,7.41-4.63,3.28-6.2-4.09-4.92-7.41Z"/>
      <path d="M70.57,203.38l.15,7.66c-7.75,1.67-7.64-11.31-.15-7.66Z"/>
      <path d="M81.83,351.14c4.68-1.45,6.86,7.75,3.38,8.91-5.73,1.91-4.77-5.63-3.38-8.91Z"/>
      <path d="M70.56,352.41c1.54,1.86.51,5.53.25,7.73-10.08.96-4.72-13.13-.25-7.73Z"/>
      <path d="M190.55,364.41c1.26,1.51,1.25,5.23-.23,6.73l-2.91.93c-5.36-2.98-.62-12.17,3.14-7.66Z"/>
      <path d="M44.84,385.15c2.7-2.33,8.83,4.05,5.04,7.55-5.04,3.58-6.7-6.13-5.04-7.55Z"/>
      <path d="M130.78,304.12c-9.6-1.19-3.72-14.58,1.93-5.27l-1.93,5.27Z"/>
      <path d="M135.35,375.15c5.51-.83,5.72,8.28,1.84,8.93-3.23.54-5.06-7-1.84-8.93Z"/>
      <path d="M85.67,336.99l-3.21.95c-3.9-1.8-2.67-5.44-1.63-8.79,4.79-.5,5.7,3.8,4.84,7.84Z"/>
      <path d="M49.71,364.24c1.28,3.05,2.18,6.8-1.38,8.67-4.05-.94-4.65-5.11-2.59-8.34l3.97-.33Z"/>
      <path d="M109.33,376.14c3.83.26,5.62,7.78,1.88,8.93-4.24,1.3-5.79-6.82-1.88-8.93Z"/>
      <path d="M171.07,364.4c.56-.58,1.63-.79,2.39-1.13l2.19,1.52c2.08,13.8-9.6,4.81-4.58-.39Z"/>
      <path d="M54.42,376.23c5.72-1.9,5.4,7.16,2.86,7.9-4.14,1.21-6.39-6.73-2.86-7.9Z"/>
      <path d="M84.55,204.39c2.02,2.07,1.63,9.03-2.08,7.6s-2.65-5.76-1.65-8.86c.49-.34,3.17.69,3.73,1.26Z"/>
      <path d="M89.79,307.14c6.85,13.34-10.52,8.55-3.02,1.45.95-.9,1.48-1.78,3.02-1.45Z"/>
      <path d="M168.75,360.08l-3.33-.06c-3.03-1.05-1.26-6.44-.61-8.88,4.66.62,5.31,5.16,3.93,8.94Z"/>
      <path d="M178.91,376.24c5.28-1.47,7.37,4.93,3.29,7.83-3.73,1.15-5.28-5.15-3.29-7.83Z"/>
      <path d="M73.03,364.39c2.12-2.66,6.63,1.46,5.63,5.03-1.79,6.39-8.94-.88-5.63-5.03Z"/>
      <path d="M57.51,397.46c2.53,2.22,3.04,6.52-1.04,7.53l-2.73-1.55c-1.89-3.25.2-9.13,3.77-5.99Z"/>
      <path d="M155.57,399.4c1.94,2.28.27,8.36-3.77,6.27-5.05-2.62.28-10.35,3.77-6.27Z"/>
      <path d="M81.32,284.15c3.66-1.14,6.04,6.89,2.89,7.9-5.77,1.86-5.36-7.13-2.89-7.9Z"/>
      <path d="M121.83,351.14c4.3-1.37,6.89,6.74,3.37,7.91-5.96.97-4.61-4.1-3.37-7.91Z"/>
      <path d="M95.29,330.37c4.58,1.14,4.91,6.16,1.04,8.54-4.58-1.14-4.91-6.16-1.04-8.54Z"/>
      <path d="M117.71,337.04c-.7.48-2.32.08-3.27-.01-2.54-.79-2.2-7.23-.11-7.88,4.15-1.13,5.4,6.51,3.39,7.89Z"/>
      <path d="M53.73,336.06c-.64.44-2.37.04-3.3-.04-2.53-.79-2.21-7.21-.12-7.87,4.08-1.3,5,6.82,3.41,7.92Z"/>
      <path d="M168.67,382.99l-3.21.95-2.17-1.81c-2.07-4.3,3.17-7.87,5.04-5.02l.33,5.88Z"/>
      <path d="M121.35,397.15l4.28,2.7c1.27,10.41-9.51,3.31-4.28-2.7Z"/>
      <path d="M146.91,337.04c-4.27-3.01,4.5-14.93,4.79-1.54-.46,1.79-3.85,2.2-4.79,1.54Z"/>
      <path d="M124.78,382.12l-3.35-.09c-6.03-9.45,6.2-11.56,3.35.09Z"/>
      <path d="M128.84,364.16l3.35.09c6.03,9.45-6.2,11.56-3.35-.09Z"/>
      <path d="M141.91,364.24c.94-.66,4.32-.25,4.79,1.54-.29,13.39-9.06,1.47-4.79-1.54Z"/>
      <path d="M66.91,383.03c-1.41-.88-1.66-7.05,1.38-7.66,6.46,1.18,3.27,10.56-1.38,7.66Z"/>
      <path d="M174.8,387.14l1.01,8c-6.59,1.38-8.26-7.93-1.01-8Z"/>
      <path d="M127.42,318.22c4.71-1.54,7.27,5.64,2.69,6.81-3.87.99-6.14-5.68-2.69-6.81Z"/>
      <path d="M91.32,262.14c2.69-.47,3.64,1.62,4.35,3.73l-2.49,4.2c-2.97.52-5.07-6.11-1.86-7.93Z"/>
      <path d="M97.78,212.12l-4.54-.91c-2.03-10.81,7-8.62,4.54.91Z"/>
      <path d="M84.71,376.24c1.44.99,1.63,7.2-1.39,7.63l-2.59-1.4c-2.64-4.13.88-8.37,3.98-6.23Z"/>
      <path d="M74.91,314.04c-1.64-1.13-.94-6.78,1.38-7.84,6.59,1.61,2.97,10.83-1.38,7.84Z"/>
      <path d="M79.68,244c-2.72,4.35-8.1-3.9-4.85-6.85,3.7-1.12,6.44,4.31,4.85,6.85Z"/>
      <path d="M70.57,226.4c1.61,2.05,1.22,7.42-2.25,7.74-2.81-2.57-3.87-6.69-.03-8.75.67.33,1.87.49,2.28,1.01Z"/>
      <path d="M101.87,372.09c-1.29-1.14-.83-8.64,2.41-7.94,5.11,1.11,1.71,11.58-2.41,7.94Z"/>
      <path d="M165.32,398.14c2.69-.47,3.64,1.62,4.35,3.73l-2.49,4.2c-2.97.52-5.07-6.11-1.86-7.93Z"/>
      <path d="M161.67,329.28c1.65,2.74,1.3,7.04-2.34,7.85-2.55-2.2-3-4.92-1.37-7.85h3.71Z"/>
      <path d="M111.67,234.99h-3.71c-1.64-2.93-1.18-5.65,1.37-7.85,3.64.81,3.99,5.11,2.34,7.85Z"/>
      <path d="M170.79,328.15c1.69,1.14,1.09,8.78-2.45,7.98-4.51-1.02-1.52-10.66,2.45-7.98Z"/>
      <path d="M72.68,404l-3.24,1.01-2.48-5.16,2.48-2.65c2.64-.46,4.23,4.63,3.24,6.79Z"/>
      <path d="M109.06,313.86c-1.86-2.24-.28-7.8,3.24-6.72s1.05,11.87-3.24,6.72Z"/>
      <path d="M39.35,396.15c3.75-1.09,6.47,5.71,2.85,6.9-5.45,1.78-5.5-6.13-2.85-6.9Z"/>
      <path d="M113.32,194.14c4.89-.17,5,5.3,1.97,7.99-2.92.67-5.26-6.28-1.97-7.99Z"/>
      <path d="M160.75,387.2l.64,5.98-4.48.85c-1.91-4.32-1.79-7.73,3.84-6.83Z"/>
      <path d="M98.31,248.16l3.35,4.65-3.36,3.38c-1.87,0-2.81-2.02-3.14-3.56l3.15-4.47Z"/>
      <path d="M90.56,238.39c1.56,1.67,1.16,4.26.3,6.15-2.37,3.25-8.5-4.7-2.56-7.14.71.24,1.78.47,2.26.99Z"/>
      <path d="M117.32,262.14c4.92-.94,5.15,7.22,1.98,7.99-2.53.61-5.21-6.5-1.98-7.99Z"/>
      <path d="M132.32,307.15c4.61-1.46,4.35,7.54,1.98,7.99-3.27.61-5.08-7.01-1.98-7.99Z"/>
      <path d="M103.8,387.14c1.8,4.41,1.65,10.69-4.02,6.32l.98-5.88,3.04-.44Z"/>
      <path d="M57.67,309.28c3.78,6.05-8.14,9.25-4.83-1.13.52-.37,4.55.68,4.83,1.13Z"/>
      <path d="M110.81,212.14l-4.09-.59c-1.33-2.64-.73-4.77.11-7.41,4.39.17,4.27,4.63,3.98,8Z"/>
      <path d="M86.89,217.23l2.95-.64,2.59,3.53-2.25,3.95c-3.3-.49-3.86-4.02-3.29-6.84Z"/>
      <path d="M92.79,372.13c-5.12,1.8-4.95-7.52-2.47-7.99,3.44-.65,4.12,5.66,2.47,7.99Z"/>
      <path d="M107.8,262.14c.87.61,2.22,8.71-1.47,7.99-4.27-.83-2.61-10.85,1.47-7.99Z"/>
      <path d="M142.82,394.14v-7.01l4.05.44c2.46,3.94.87,7.47-4.05,6.56Z"/>
      <path d="M153.56,318.39c5.2,5.62-5.59,9.34-4.79,2.3.28-2.5,2.86-4.39,4.79-2.3Z"/>
      <path d="M59.07,300.87c-2.51-2.57-.18-8.08,3.81-5.3,2.84,1.98.26,9.46-3.81,5.3Z"/>
      <path d="M61.82,348.13l-1.01-6.99c6.68-.98,8.23,7.13,1.01,6.99Z"/>
      <path d="M75.79,173.15c.81.57,1.95,8.35-1.47,7.98-4.76-1.82-2.15-10.55,1.47-7.98Z"/>
      <path d="M93.82,342.14l4.56.93c2.11,8.96-6.34,7.92-4.56-.93Z"/>
      <path d="M140.8,336.13l-4.88-2.69c1.14-7.74,7.98-3.34,4.88,2.69Z"/>
      <path d="M62.74,336.08l-3.01-.53c-3.75-10.94,6.43-8.5,3.01.53Z"/>
      <path d="M79.81,393.14l-4.09-.59c-.82-2.27-1.84-4.72.61-6.4,4.45-.52,3.54,3.93,3.49,6.99Z"/>
      <polygon points="156.81 347.14 152.26 346.2 151.96 341.29 156.35 341.1 156.81 347.14"/>
      <path d="M144.32,307.15c4.25-1.31,4.57,6.18,1.98,6.98-4.25,1.31-4.57-6.18-1.98-6.98Z"/>
      <path d="M117.79,387.14l.93,5.34c-3.63,5.23-7.04-2.63-3.97-4.9l3.03-.44Z"/>
      <path d="M134.82,404.14c.08-1.45-.26-3.09,0-4.49,1.38-7.35,10.73,5.29,0,4.49Z"/>
      <path d="M97.83,314.13l-.93-5.34c3.63-5.23,7.04,2.63,3.97,4.9l-3.03.44Z"/>
      <path d="M86.81,404.13l-4.56-.93c-2.14-9.16,5.74-6.89,4.56.93Z"/>
      <path d="M124.81,307.14c-.08,1.45.26,3.09,0,4.49-1.38,7.35-10.73-5.29,0-4.49Z"/>
      <path d="M97.79,285.14l.93,5.34c-3.63,5.23-7.04-2.63-3.97-4.9l3.03-.44Z"/>
      <path d="M117.72,364.23c2.97,9.81-8.25,7.96-3.28-.13l3.28.13Z"/>
      <path d="M97.81,234.13l-4.56-.93c-2.14-9.16,5.74-6.89,4.56.93Z"/>
      <path d="M43.33,307.14c2.66-.51,5.27,5.27,1.98,6.99-3.9,1.19-4.84-5.15-1.98-6.99Z"/>
      <path d="M127.66,336.98l-3.76.06c-.71-2.68-1.16-5.01,1.4-6.85l3.42,2.6-1.06,4.19Z"/>
      <path d="M74.33,193.14c2.66-.51,5.27,5.27,1.98,6.99-3.9,1.19-4.84-5.15-1.98-6.99Z"/>
      <path d="M95.32,397.15c3.9-1.19,4.84,5.15,1.98,6.99-2.66.51-5.27-5.27-1.98-6.99Z"/>
      <path d="M74.06,301.88c-2.08-2.25-1.43-6.75,2.15-5.65,4.57,1.4,1.39,9.47-2.15,5.65Z"/>
      <path d="M75.81,279.13l-4.55-.93-.36-4.96c4.52-2.27,5.33,2.3,4.91,5.9Z"/>
      <path d="M104.81,302.13l-4.55-.93-.36-4.96c4.52-2.27,5.33,2.3,4.91,5.9Z"/>
      <path d="M66.66,314l-3.84.15c.07-2.36-.79-5.31,1.51-7,2.61-.56,4.16,5.03,2.33,6.85Z"/>
      <path d="M126.33,273.14c5.64,1.67,3.51,10.61-1.38,5.35l1.38-5.35Z"/>
      <path d="M76.65,216.29c3.53,8.12-5.96,9.25-3.83-.16l3.83.16Z"/>
      <path d="M61.65,273.3l.15,5.85-3.88-.13c-.76-2.44-1-4.45-.11-6.88l3.84,1.16Z"/>
      <path d="M65.82,284.14c1.23-.94,4.32,2.63,4.91,3.63l-2.55,3.28c-3.5.19-3.89-5.75-2.35-6.92Z"/>
      <path d="M137.71,286.25l.09,5.89-3.83-.16c-2.25-3.76-.53-7.93,3.74-5.73Z"/>
      <path d="M117.06,171.88c-2.05-2.35-1.65-6.34,2.25-5.74l1.42,5.39-1.95,1.13c-.52-.31-1.35-.38-1.72-.79Z"/>
      <path d="M52.31,283.16c1.1.99,2.35,1.89,2.53,3.53.74,6.68-9.9,2.53-2.53-3.53Z"/>
      <path d="M58.9,364.23c4.08-3.15,6.52,5.02,3.4,5.9-3.83.64-3.9-3.31-3.4-5.9Z"/>
      <path d="M71.8,329.14c.97,1.3,1.28,8.04-1.47,6.99-3.69-2.5-3.77-7.59,1.47-6.99Z"/>
      <path d="M92.81,296.13v6.01l-3.85-.14c-1.05-1.92-1.06-3.79,0-5.73l3.85-.14Z"/>
      <path d="M119.33,183.14c2.89-.63,3.6,5.63.97,6.99-3.8-1.14-4.37-5.02-.97-6.99Z"/>
      <path d="M108.8,284.14l.93,5.35-.88,1.19c-4.4,3.14-5.42-6.46-.05-6.54Z"/>
      <path d="M80.9,347.04c-.78-1.25-.15-6.43,2.4-5.9,5.92,3.33-.56,8.84-2.4,5.9Z"/>
      <path d="M111.72,341.23c.78,1.25.15,6.43-2.4,5.9-5.92-3.33.56-8.84,2.4-5.9Z"/>
      <path d="M123.72,291.04c-4.59,2.4-5.25-2.8-3.9-5.9,4.12-.77,4.49,2.7,3.9,5.9Z"/>
      <path d="M64.61,262.37c2.32,1.35,2.83,6.57-1.29,6.76l-1.51-7c.92.07,1.94-.26,2.8.24Z"/>
      <path d="M144.71,346.04c-4.5,2.67-6.4-4.98-2.37-5.89,2.58-.58,3.86,5,2.37,5.89Z"/>
      <path d="M106.81,330.14c.19,1.8.52,7.62-2.48,6.99-2.9-2.35-2.11-7.98,2.48-6.99Z"/>
      <path d="M107.79,318.15c1.11.76,1.87,7.28-2.47,5.98-3.48-1.04-.77-8.2,2.47-5.98Z"/>
      <path d="M94.83,383.13c-1.11-.76-1.87-7.28,2.47-5.98,3.48,1.04.77,8.2-2.47,5.98Z"/>
      <path d="M116.79,296.15c1.11.76,1.87,7.28-2.47,5.98-3.48-1.04-.77-8.2,2.47-5.98Z"/>
      <path d="M75.81,96.13c-5.7,1.54-10.21-2.6-15.95-3.54-3.13-.52-5.6-.25-8.57-.45-1.49-.1-2.89.76-2.47-1.49,1.4-3.57,9.99-2.8,13.25-2.28,2.26.36,16.6,4.4,13.74,7.75Z"/>
      <path d="M87.5,44.44c.97,1.07,1.4,3.08,2.15,4.38l-1.4,2.3-14.43-6.49c3.48-4.48,9.99-4.27,13.67-.2Z"/>
      <path d="M48.67,55.29l-.85,6.38c-6.77,3.64-8.48-5.48-1.69-7.33l2.54.94Z"/>
      <path d="M76.92,61.04c-2.1-4.29,5.41-7.88,7.46-4.96,1.78,5.43-2.89,7.39-7.46,4.96Z"/>
      <path d="M54.81,60.14c.9.92-4.35,10.69-7.99,8.99-.82-.75,6.47-10.54,7.99-8.99Z"/>
      <path d="M187.81,252.13l-1.5,5.98c-3.22.07-5.38-8.39-3.56-9.51,4.26-1.3,9.25-.72,12.03,3.03l-6.98.49Z"/>
      <path d="M190.81,239.14c.23.17,1.89-.15,2.93.52,6.56,4.23-5.96,13.77-2.93-.52-6.2-.73-9.86,6.49-16,5.99l1.61-6.12c4.05.77,7.6-2.96,10.91-2.95,3.99,0,3.07,2.79,3.47,3.09Z"/>
      <path d="M182.71,271.04c-2.27,3.82-9.64-3.94-3.37-7.89,2.89-.67,4.52,5.96,3.37,7.89Z"/>
      <path d="M183.31,226.16c1.96,1.85,4.21,3.22,3.36,6.26-1.87,6.65-9.84-1.28-3.36-6.26Z"/>
      <path d="M151.82,216.14l4.55.94c2.37,10.61-6.01,8.11-4.55-.94Z"/>
      <path d="M203.34,263.15c4.08,1.1,4.02,5.69.98,7.92l-3.59-3.46,2.61-4.46Z"/>
      <path d="M168.71,217.26l-.38,5.91-3.5.97c-1.01-3.09-2.04-5.96,1.46-7.72l2.42.85Z"/>
      <path d="M155.66,201.99l-3.74.04c-3.67-10.09,7.33-8.51,3.74-.04Z"/>
      <path d="M177.67,275.28c1.28,2.06-.62,7.36-3.85,6.85-3.28-4.12,1.16-11.18,3.85-6.85Z"/>
      <path d="M169.95,211.99c-1.63-2.63.88-6.4,3.84-6.85,3.28,4.11-1.16,11.19-3.84,6.85Z"/>
      <path d="M189.66,274.29c1.71,2.9,1.42,6.06-2.32,6.84-2.08-1.73-2.86-3.9-1.62-6.39l3.94-.45Z"/>
      <polygon points="162.81 212.14 158.26 211.2 157.96 206.29 162.35 206.1 162.81 212.14"/>
      <path d="M167.31,263.16c2.72,1.88,3.86,5.55.99,7.98-4.43-1.13-4.61-5.57-.99-7.98Z"/>
      <path d="M168.81,202.13l-4.56-.93c-2.14-9.16,5.74-6.89,4.56.93Z"/>
      <path d="M192.33,263.14c2.66-.51,5.27,5.27,1.98,6.99-3.9,1.19-4.84-5.15-1.98-6.99Z"/>
      <path d="M158.33,184.14l3.51,3.49-2.54,3.5c-2.9.62-3.6-5.63-.97-6.99Z"/>
      <path d="M173.33,250.14c3.37-.71,3.14,5.8-.01,6.98l-2.53-3.48c-.02-1.08,1.85-3.35,2.54-3.49Z"/>
      <path d="M21.71,235.26l-.38,5.91-3.5.97c-1.01-3.09-2.04-5.96,1.46-7.72l2.42.85Z"/>
      <path d="M18.67,271.29c.88,1.46.16,6.33-2.34,5.85-6.07-3.57.05-9.66,2.34-5.85Z"/>
      <path d="M19.83,260.15c3.24-2.21,5.95,4.95,2.47,5.98-4.34,1.29-3.59-5.22-2.47-5.98Z"/>
    </g>
  </g>
</svg>