<?xml version="1.0" encoding="UTF-8"?>
<svg id="Layer_2" data-name="Layer 2" xmlns="http://www.w3.org/2000/svg" viewBox="0 0 292.88 371.07">
  <defs>
    <style>
      .cls-1 {
        fill: #fff;
      }

      .cls-2 {
        fill: none;
      }
    </style>
  </defs>
  <g id="Layer_2-2" data-name="Layer 2">
    <g>
      <path class="cls-1" d="M292.88,114.07v-48c-2.58.66-3.86,3.52-5.24,4.63-.29.23-1.33-.3-1.74.02-3.25,2.57-12.93,12.76-16.46,12.34-1.1-.13-2.07-.57-2.84-1.2-1,.23-2.01.46-3.01.69-.17,1.94-1.92,3.36-4.48,4.25-3.76,1.31-24.52,5.08-28.76,5.32-2.16.12-5.26-.02-6.19-2.28-2.35.09-4.7.11-7.05.03,5.36,2.81,11.05,5.13,15.13,8.33,3.59,2.82,3.61,8.17-1.58,8.71-5.48.57-11.2-7.65-16.77-8.84-1.04,1.42,4.49,11.41,5.25,14.22,2.45,9.06,9.32,49.91,6.93,57.48-1.23,3.91-8.84,18.15-11.33,21.67-.95,1.33-6.57,6.5-7.95,7.06-.15.06-.33.12-.53.17,1.77.83,3.55,1.67,5.33,2.52.76-.46,1.71-.74,2.79-.74.5,0,8.22,2.65,9.48,3.14,15.22,5.88,32.48,17.63,47.73,23.26,6.51,2.41,6.51-.39,9.79-.43,6.28-.08,5.15,16.3,5.03,21.01-.16,5.95-.75,23.99-2.16,28.72-1.94,6.53-7.56,6.24-13.08,4.66-1.56-2.18-4.42-5.48-6.37-7.15-9.07-7.77-19.84-16.36-28.84-25.15-3.33-3.24-10.68-10.01-13.08-13.22-3.7-4.94-4.22-8.92,3.05-9.74l48.42,43.52c1.52-.91,1.37-1.98,1.56-3.46,1.15-9.04,1.16-18.54,1.51-27.6-5.81-.86-9.42-4.21-14.55-6.43-9.4-4.06-20.85-7.6-30.03-11.97-2.04-.97-11.58-5.95-17.4-9.23-1.39,3.61-3.23,7.05-5.18,10.42,4.12,2.84-3.35,15.99-4,19.94-3.29,19.97,10.49,39.17,22.16,54.3,13.04,16.89,30.46,33.14,47.17,47.31l17.29,15.72v-27c-4.35-1.95-20.17-6.91-14.54-13.05,3.68-4.01,10.32,2.88,14.54,4.05v-94c-3.81-2.41-5.27-11.31-7.53-13.97-1.24-1.47-3.59-1.18-4.9-2.1-2.99-2.1-4.07-16.72-5.21-21.02-7.7-28.98-17.65-57.85-33.2-82.52-1.09-1.73-4.82-6.68-4.95-8.04-.42-4.45,5.95-5.12,8.49-3.06,1.69,1.37,8.35,11.95,9.92,14.59,10.09,16.89,18.29,38.22,23.87,57.12,3.8,12.85,7.33,26.7,8.52,40l4.99-1v-78c-4.92-5.11-8.09-11.64-12.17-17.37-3.15-4.42-9.32-6.75-4.74-13.55,8.46.7,11.97,9.44,16.91,14.92ZM204.36,187.09c.87-.1,6.32-5.19,6.42-5.61,1.43-6.27-13.62-1.87-11.9-8.39,8.26-1.35,17,7.26,17.76-6.56-.6-3.32-12.39.54-13.76-1.47-3.74-5.53,13.23-3.25,14-3.99,3.22-13.48-10.49-5.54-12-7-3.36-3.27,7.24-6.54,9.86-5.14,1.71-3.31,1.26-6.45.13-9.86-1.26-.84-8.19,4.35-9.98.48-1.17-2.51,7.34-3.18,8.5-5.46,1.2-2.36,1.12-9.23-2.51-7.54-2.98,1.39-5.9,5.43-8,.01l8.52-4.51-.53-8.98c-1.82-1.88-11.59,9.22-10.99.01,2.99.92,2.92-1.62,4.01-2.39.36-.25,3.34.93,2.74-2.98-1.45-9.45-11.39.89-12.75-.64-1.08-5.32,3.14-4.73,5.99-7.56-2.3-10.89-11.29-.73-12.99-2.45-2.3-2.33,5.67-5.31,4.92-8.39-.16-.64-3.96-3.34-4.61-3.44-1.69-.25-5.72,4.38-8.31,3.83-2.54-2.53,13.87-14.39,17.93-11.01,1.92-1.34-.23-12.3-.88-14.53-2.55-8.76-14.26-24.62-22.49-28.52-14.51-6.88-9.35,6.78-10.86,8.86-1.26,1.74-4.98,2.49-3.69,7.21,5.06-1.66,4.72,1.89,1.76,4.65-.25.24-5.13,2.07-5.65,2.88-2.61,3.99-3.53,13.11-5.29,17.71-1.8,4.69-6.98,7.3-2.85,12.28,4.52,5.45,8.84,5.63,10.58,14.42,4.02,20.25-13.65,34.86-32.82,28.82-2.48-.79-4.97-3.72-7.07-3.54-3.06.25-10.17,5.78-10.26,9.27-.19,7.39,4.64,6.44,8.1,9.5,7.72,6.84,9.09,24.62,2.55,32.38-1.23,1.46-5.75.32-3,6.62,6.88-.59,14.36,5.82,20.7,8.75,5,2.32,13.32,2.18,13.46,8.47,1.36.26,2.73.48,4.1.66.3-1.03,1.17-2.17,2.74-3.39,1.93-1.5,4.13-.77,6.16-1.51.76-.27.75-1.92,1.43-2,1.78-.19,5.04,1.53,7.36.56v-4.52c4.63,1.24,9.06,5.42,12.97.49-4.24-1.98-4.79-6.08.74-3.72,5.9,2.53,6.57,5.59,14.3,1.74,3.37-1.96-5.93-5.08-6.4-5.45-.96-.74-.81-2.87-.62-3.06,1.81-1.82,9.06,4.38,12.48,4.01ZM137.67,159.87c-1.14,1.14-6.83,1.26-8.18.28-.85-.62-.41-2.09-.93-2.71-.68-.81-1.96-1.05-2.56-1.97-2.5-3.83.17-7.71,4.39-8.35,4.22.52,10.69,9.32,7.28,12.75ZM181.85,75.56c.07,2.47-7.88,7.65-10.97,5.5-.36-3.22,10.86-9.77,10.97-5.5ZM174.78,69.46c-1.51.72-3.43,3.77-4.23,4.27-1.67,1.05-4.2,1.24-6.16,1.35-2.07-3.49,2.94-4.86,4.95-5.98,2.51-1.39,5.14-5.69,5.44.36ZM154.88,67.56c-.43-2.12,9.67-7.31,11.68-8.35l2.32,3.85c-2.37-.88-12.82,10.28-14,4.5ZM182.36,160.05c-1.01,2.53-9.35,15.97-11.06,17.95-2.48,2.88-6.27,4.23-9.45,1.54-2.25-1.96,1.09-7.21,2.37-9.14,2.87-4.34,7.57-9.22,9.89-14.6,1.22-2.83.3-9.48,5.24-9.7,7.17-.31,4.56,10.08,3.01,13.95Z"/>
      <path d="M292.88,358.07v13c-3.01-2.48-7.03-5.12-9.9-7.6-12.74-11.06-25.84-22.85-36.05-32.93-18.28-18.04-52.31-57.06-50.71-83.53.33-5.54,5.05-26.15,11.31-26.72,1.22-.11,2.11.08,2.73.51,4.12,2.84-3.35,15.99-4,19.94-3.29,19.97,10.49,39.17,22.16,54.3,13.04,16.89,30.46,33.14,47.17,47.31l17.29,15.72Z"/>
      <path d="M292.88,228.07c-3.81-2.41-5.27-11.31-7.53-13.97-1.24-1.46-3.59-1.18-4.9-2.1-2.99-2.1-4.07-16.71-5.21-21.02-7.7-28.98-17.65-57.85-33.2-82.52-1.09-1.72-4.82-6.67-4.95-8.03-.42-4.45,5.95-5.13,8.49-3.06,1.69,1.37,8.34,11.95,9.92,14.59,10.09,16.89,18.28,38.23,23.87,57.13,3.8,12.85,7.32,26.69,8.51,39.99l4.99-1v20Z"/>
      <path d="M292.88,55.07v11c-2.58.66-3.86,3.52-5.24,4.63-.29.23-1.33-.3-1.74.02-3.25,2.57-12.93,12.76-16.46,12.34-1.1-.13-2.07-.57-2.84-1.2-1.64-1.36-2.32-3.64-1.25-5.79.25-.49,7.07-6.96,7.9-7.63,2.34-1.9,7.5-5.24,10.03-6.99,2.97-2.05,7.11-3.59,9.6-6.38Z"/>
      <path d="M292.88,130.07c-4.91-5.11-8.09-11.64-12.17-17.37-3.15-4.42-9.32-6.75-4.73-13.55,8.46.7,11.97,9.43,16.91,14.92v16Z"/>
      <path d="M292.88,322.07v9c-4.35-1.95-20.17-6.91-14.54-13.05,3.68-4.02,10.32,2.88,14.54,4.05Z"/>
      <path d="M232.24,98.2c-4.08-3.2-9.77-5.52-15.13-8.33-4.07-2.12-7.95-4.53-10.78-7.8,4.12-19.67-9.89-43.68-26.59-53.36-9.29-5.4-16.18-6.81-25.19.18-3.11-.25-3.81-3.7-4.97-4.51C134.6,13.81,105.58.65,87.42.03,42.74-1.48-4.72,60.38.38,102.1c1.98,16.2,14.45,37.96,27.01,47.96,2.95,2.35,5.93,3.1,9.02,4.98,1.68,7.39,2.31,29.51,8.12,33.89,8.87,6.68,16.28-11.41,15.61-18.22l2.18-1.64c.91,0,15.2,7.35,15.92,7.94.95.8.35,2.36,1.3,3.11,1.27.99,7.74,6.03,8.31,6.36,3.03,1.76,12.85,1.37,15.71,2.33,5.84,1.94,18.19,8.72,25.31,11.77,6.98,3,11.54,8.99,19.89,5.38.26-1.01.37-1.9.34-2.68-.14-6.29-8.46-6.15-13.46-8.47-6.34-2.93-13.82-9.34-20.7-8.75-2.75-6.3,1.77-5.16,3-6.62,6.54-7.76,5.17-25.54-2.55-32.38-3.46-3.06-8.29-2.11-8.1-9.5.09-3.49,7.2-9.02,10.26-9.27,2.1-.18,4.59,2.75,7.07,3.54,19.17,6.04,36.84-8.57,32.82-28.82-1.74-8.79-6.06-8.97-10.58-14.42-4.13-4.98,1.05-7.59,2.85-12.28,1.76-4.6,2.68-13.72,5.29-17.71.52-.81,5.4-2.64,5.65-2.88,2.96-2.76,3.3-6.31-1.76-4.65-1.29-4.72,2.43-5.47,3.69-7.21,1.51-2.08-3.65-15.74,10.86-8.86,8.23,3.9,19.94,19.76,22.49,28.52.65,2.23,2.8,13.19.88,14.53-4.06-3.38-20.47,8.48-17.93,11.01,2.59.55,6.62-4.08,8.31-3.83.65.1,4.45,2.8,4.61,3.44.75,3.08-7.22,6.06-4.92,8.39,1.7,1.72,10.69-8.44,12.99,2.45-2.85,2.83-7.07,2.24-5.99,7.56,1.36,1.53,11.3-8.81,12.75.64.6,3.91-2.38,2.73-2.74,2.98-1.09.77-1.02,3.31-4.01,2.39-.6,9.21,9.17-1.89,10.99-.01l.53,8.98-8.52,4.51c2.1,5.42,5.02,1.38,8-.01,3.63-1.69,3.71,5.18,2.51,7.54-1.16,2.28-9.67,2.95-8.5,5.46,1.79,3.87,8.72-1.32,9.98-.48,1.13,3.41,1.58,6.55-.13,9.86-2.62-1.4-13.22,1.87-9.86,5.14,1.51,1.46,15.22-6.48,12,7-.77.74-17.74-1.54-14,3.99,1.37,2.01,13.16-1.85,13.76,1.47-.76,13.82-9.5,5.21-17.76,6.56-1.72,6.52,13.33,2.12,11.9,8.39-.1.42-5.55,5.51-6.42,5.61-3.42.37-10.67-5.83-12.48-4.01-.19.19-.34,2.32.62,3.06.47.37,9.77,3.49,6.4,5.45-7.73,3.85-8.4.79-14.3-1.74-5.53-2.36-4.98,1.74-.74,3.72-3.91,4.93-8.34.75-12.98-.49v4.52c-2.31.97-5.57-.75-7.35-.56-.68.08-.67,1.73-1.43,2-2.03.74-4.23.01-6.16,1.51-1.57,1.22-2.44,2.36-2.74,3.39-.77,2.58,2.05,4.41,6.22,4.92,1.29.16,12.23-1.96,14.53-2.42,7.66-1.54,16.49-4.59,24.14-6.64,2.11-.56,6.17-.6,8.17-1.13.2-.05.38-.11.53-.17,1.38-.56,7-5.73,7.95-7.06,2.49-3.52,10.1-17.76,11.33-21.67,2.39-7.57-4.48-48.42-6.93-57.48-.76-2.81-6.29-12.8-5.25-14.22,5.57,1.19,11.29,9.41,16.77,8.84,5.19-.54,5.17-5.89,1.58-8.71ZM111.23,150.22c.48.37,4.18,3.81,4.34,4.06.29.46,1.74,9.52,1.79,10.71.29,7.61-6.85,15.98-14.14,17.71-10.01,2.37-24.31-6.29-24.11-17.37.32-17.32,18.53-25.39,32.12-15.11ZM145.57,92.39c1.15.97,5.81,7.45,6.5,8.99,6.85,15.11-8.74,30.96-24.43,26.43-8.1-2.34-15.57-14.01-12.95-22.43,1.98-6.4,7.14-13.2,13.79-15.23,3.88-1.18,13.92-.43,17.09,2.24ZM146.92,59.69c1.91,3.87,1.45,6.8.03,10.86-.66,1.9-6.48,13.84-7.27,14.31-2.13,1.23-7.41-.54-9.95-.25-1.96.22-4.38,1.71-6.16,2.65-14.99,7.92-16.43,23.37-9.74,37.72-7.28,2.74-10.29,8.84-12.12,15.92-13.9-.45-22.47,5.85-26.8,18.7-.49,1.44.05,3.52-2.52,3.46l-.13-11.31c.38-2.53,4.22-9.52,5.93-11.37,2.42-2.63,7.53-3.79,8.35-8.8-5.79-11.38-9.83,2.71-16.66,2.48.84-4.35,5.08-7.02,7.01-9.75,3.37-4.78,6.1-10.15,9.98-14.74,1.36-1.61,3.08-2.95,4.52-4.49,2.63-1.1.7,5.8,4.16,6.89,5.72,1.81,6.98-5.38,8.45-8.28,5.44-10.77,8.78-20.67,20.92-25.32.15-1.67.12-3.53-.95-4.9-2.08-2.67-6.52.09-6.11-2.91.58-4.29,10.72-13.75,11.99-19.02,4.83-1.51,17.67-14.88,22.01-13.02,2.77,1.2,1.34,3.53-.39,5.21-.54.52-4.38,2.07-5.17,2.7-3.43,2.76-6.81,6.48-10.4,9.14l3.5,2.48c1.39-3.02,4.76-3.81,7.31-5.65,2.51-1.8,4.15-6.31,8.17-4.32-1.84,4.56-3.73,8.86-7.96,11.61Z"/>
      <path d="M286.41,247.43c-.16,5.95-.75,23.99-2.16,28.72-1.94,6.53-7.56,6.24-13.08,4.66-1.56-2.18-4.42-5.48-6.37-7.15-9.07-7.77-19.84-16.36-28.84-25.15-3.33-3.24-10.68-10.01-13.08-13.22-3.7-4.94-4.22-8.92,3.05-9.74l48.42,43.52c1.52-.91,1.37-1.98,1.56-3.46,1.15-9.04,1.16-18.54,1.51-27.6-5.81-.86-9.42-4.21-14.55-6.43-9.4-4.06-20.85-7.6-30.03-11.97-2.04-.97-11.58-5.95-17.4-9.23-2.47-1.39-4.27-2.47-4.55-2.82-2.02-2.48-1.36-5.12.7-6.37.76-.46,1.71-.74,2.79-.74.5,0,8.22,2.65,9.48,3.14,15.22,5.88,32.48,17.63,47.73,23.26,6.51,2.41,6.51-.39,9.79-.43,6.28-.08,5.15,16.3,5.03,21.01Z"/>
      <path d="M263.59,82.55c-.17,1.94-1.92,3.36-4.48,4.25-3.76,1.31-24.52,5.08-28.76,5.32-2.16.12-5.26-.02-6.19-2.28-.06-.15-.11-.3-.15-.47-1.31-5.39,7.26-6.97,10.82-7.85,5.01-1.25,18.57-3.37,23.58-3.45,1.25-.02,3.33.39,4.22,1.25.76,1.2,1.05,2.28.96,3.23Z"/>
      <path d="M164.22,170.39c2.87-4.33,7.57-9.22,9.89-14.6,1.22-2.83.3-9.48,5.24-9.7,7.17-.31,4.56,10.07,3.01,13.95-1.01,2.52-9.35,15.96-11.06,17.94-2.49,2.88-6.27,4.23-9.46,1.54-2.24-1.96,1.09-7.21,2.38-9.14Z"/>
      <path d="M137.67,159.87c-1.14,1.14-6.83,1.26-8.18.28-.86-.62-.41-2.09-.93-2.71-.68-.81-1.96-1.05-2.56-1.97-2.5-3.83.17-7.71,4.39-8.35,4.22.52,10.7,9.32,7.28,12.75Z"/>
      <path d="M168.87,63.06c-2.37-.88-12.81,10.28-13.99,4.49-.43-2.12,9.66-7.31,11.67-8.34l2.32,3.85Z"/>
      <path d="M170.55,73.73c-1.67,1.05-4.2,1.24-6.16,1.35-2.07-3.49,2.94-4.86,4.95-5.98,2.51-1.39,5.14-5.7,5.44.36-1.51.72-3.43,3.77-4.23,4.27Z"/>
      <path d="M170.88,81.06c-.36-3.22,10.86-9.77,10.97-5.49.07,2.47-7.89,7.64-10.97,5.49Z"/>
      <path class="cls-1" d="M151.47,43.73c-.54.52-4.39,2.07-5.17,2.7-3.43,2.75-6.81,6.48-10.4,9.14l3.5,2.48c1.4-3.02,4.76-3.81,7.31-5.64s4.15-6.31,8.17-4.32c-1.84,4.56-3.74,8.86-7.96,11.61,1.91,3.87,1.45,6.8.03,10.86-.66,1.9-6.48,13.84-7.28,14.3-2.12,1.24-7.41-.53-9.95-.25-1.96.22-4.38,1.71-6.16,2.65-14.99,7.92-16.43,23.37-9.74,37.72-7.27,2.74-10.29,8.84-12.12,15.93-13.9-.45-22.47,5.84-26.8,18.7-.49,1.44.05,3.52-2.52,3.46l-.13-11.31c.38-2.54,4.22-9.52,5.93-11.38,2.42-2.63,7.53-3.79,8.35-8.8-5.8-11.38-9.83,2.71-16.67,2.48.84-4.35,5.08-7.02,7.01-9.75,3.38-4.78,6.1-10.15,9.99-14.75,1.36-1.61,3.08-2.95,4.52-4.49,2.63-1.1.69,5.8,4.16,6.9,5.72,1.8,6.98-5.38,8.45-8.29,5.45-10.77,8.78-20.66,20.92-25.32.16-1.66.13-3.53-.94-4.9-2.09-2.67-6.52.1-6.11-2.91.58-4.29,10.72-13.76,11.99-19.02,4.83-1.51,17.67-14.88,22.01-13.02,2.77,1.19,1.35,3.53-.38,5.21Z"/>
      <path class="cls-1" d="M152.07,101.38c-.69-1.54-5.35-8.02-6.5-8.99-3.17-2.67-13.21-3.42-17.09-2.24-6.65,2.03-11.81,8.83-13.79,15.23-2.62,8.42,4.85,20.09,12.95,22.43,15.69,4.53,31.28-11.32,24.43-26.43ZM123.13,107.83c-.32-.55-.98-5.47-.78-5.82,3.25-5.77,17.42.29,17.13,7.57-.31,7.74-14.52,1.48-16.35-1.75Z"/>
      <path class="cls-1" d="M115.57,154.28c-.16-.25-3.86-3.69-4.34-4.06-13.59-10.28-31.8-2.21-32.12,15.11-.2,11.08,14.1,19.74,24.11,17.37,7.29-1.73,14.43-10.1,14.14-17.71-.05-1.19-1.5-10.25-1.79-10.71ZM107.72,160.92c-5.14,5.72-23.02-6.39-14.07-10.58,6.29-2.94,15.64,3.33,14.07,10.58Z"/>
      <path d="M123.12,107.83c-.32-.56-.97-5.47-.78-5.83,3.25-5.77,17.42.29,17.13,7.57-.31,7.74-14.52,1.48-16.35-1.75Z"/>
      <path d="M107.71,160.92c-5.14,5.72-23.02-6.39-14.06-10.58,6.28-2.94,15.63,3.33,14.06,10.58Z"/>
      <path class="cls-2" d="M268.64,81.39c-.68.16-1.36.31-2.04.47-1,.23-2.01.46-3.01.69-5,1.15-9.99,2.3-14.99,3.44-4.4,1.02-8.81,2.03-13.28,2.74-3.7.58-7.43.95-11.16,1.11-2.35.09-4.7.11-7.05.03-1.55-.04-3.1-.13-4.64-.25"/>
      <path class="cls-2" d="M208.07,224.54c.74-1.24,1.47-2.48,2.19-3.74,1.95-3.37,3.79-6.81,5.18-10.42.46-1.16.86-2.35,1.21-3.56.31-1.07.52-2.36-.24-3.18-.29-.31-.69-.5-1.07-.68l-3.75-1.77c-1.78-.85-3.56-1.69-5.33-2.52-.86-.41-1.71-.82-2.57-1.22"/>
    </g>
  </g>
</svg>